  0
SECTION
  2
HEADER
  9
$ACADVER
  1
AC1027
  9
$ACADMAINTVER
 70
105
  9
$DWGCODEPAGE
  3
ANSI_1252
  9
$LASTSAVEDBY
  1
ezdxf
  9
$REQUIREDVERSIONS
160
0
  9
$INSBASE
 10
0.0
 20
0.0
 30
0.0
  9
$EXTMIN
 10
1e+20
 20
1e+20
 30
1e+20
  9
$EXTMAX
 10
-1e+20
 20
-1e+20
 30
-1e+20
  9
$LIMMIN
 10
0.0
 20
0.0
  9
$LIMMAX
 10
420.0
 20
297.0
  9
$ORTHOMODE
 70
0
  9
$REGENMODE
 70
1
  9
$FILLMODE
 70
1
  9
$QTEXTMODE
 70
0
  9
$MIRRTEXT
 70
1
  9
$LTSCALE
 40
1.0
  9
$ATTMODE
 70
1
  9
$TEXTSIZE
 40
2.5
  9
$TRACEWID
 40
1.0
  9
$TEXTSTYLE
  7
Standard
  9
$CLAYER
  8
0
  9
$CELTYPE
  6
ByLayer
  9
$CECOLOR
 62
256
  9
$CELTSCALE
 40
1.0
  9
$DISPSILH
 70
0
  9
$DIMSCALE
 40
1.0
  9
$DIMASZ
 40
2.5
  9
$DIMEXO
 40
0.625
  9
$DIMDLI
 40
3.75
  9
$DIMRND
 40
0.0
  9
$DIMDLE
 40
0.0
  9
$DIMEXE
 40
1.25
  9
$DIMTP
 40
0.0
  9
$DIMTM
 40
0.0
  9
$DIMTXT
 40
2.5
  9
$DIMCEN
 40
2.5
  9
$DIMTSZ
 40
0.0
  9
$DIMTOL
 70
0
  9
$DIMLIM
 70
0
  9
$DIMTIH
 70
0
  9
$DIMTOH
 70
0
  9
$DIMSE1
 70
0
  9
$DIMSE2
 70
0
  9
$DIMTAD
 70
1
  9
$DIMZIN
 70
8
  9
$DIMBLK
  1

  9
$DIMASO
 70
1
  9
$DIMSHO
 70
1
  9
$DIMPOST
  1

  9
$DIMAPOST
  1

  9
$DIMALT
 70
0
  9
$DIMALTD
 70
3
  9
$DIMALTF
 40
0.03937007874
  9
$DIMLFAC
 40
1.0
  9
$DIMTOFL
 70
1
  9
$DIMTVP
 40
0.0
  9
$DIMTIX
 70
0
  9
$DIMSOXD
 70
0
  9
$DIMSAH
 70
0
  9
$DIMBLK1
  1

  9
$DIMBLK2
  1

  9
$DIMSTYLE
  2
ISO-25
  9
$DIMCLRD
 70
0
  9
$DIMCLRE
 70
0
  9
$DIMCLRT
 70
0
  9
$DIMTFAC
 40
1.0
  9
$DIMGAP
 40
0.625
  9
$DIMJUST
 70
0
  9
$DIMSD1
 70
0
  9
$DIMSD2
 70
0
  9
$DIMTOLJ
 70
0
  9
$DIMTZIN
 70
8
  9
$DIMALTZ
 70
0
  9
$DIMALTTZ
 70
0
  9
$DIMUPT
 70
0
  9
$DIMDEC
 70
2
  9
$DIMTDEC
 70
2
  9
$DIMALTU
 70
2
  9
$DIMALTTD
 70
3
  9
$DIMTXSTY
  7
Standard
  9
$DIMAUNIT
 70
0
  9
$DIMADEC
 70
0
  9
$DIMALTRND
 40
0.0
  9
$DIMAZIN
 70
0
  9
$DIMDSEP
 70
44
  9
$DIMATFIT
 70
3
  9
$DIMFRAC
 70
0
  9
$DIMLDRBLK
  1

  9
$DIMLUNIT
 70
2
  9
$DIMLWD
 70
-2
  9
$DIMLWE
 70
-2
  9
$DIMTMOVE
 70
0
  9
$DIMFXL
 40
1.0
  9
$DIMFXLON
 70
0
  9
$DIMJOGANG
 40
0.785398163397
  9
$DIMTFILL
 70
0
  9
$DIMTFILLCLR
 70
0
  9
$DIMARCSYM
 70
0
  9
$DIMLTYPE
  6

  9
$DIMLTEX1
  6

  9
$DIMLTEX2
  6

  9
$DIMTXTDIRECTION
 70
0
  9
$LUNITS
 70
2
  9
$LUPREC
 70
4
  9
$SKETCHINC
 40
1.0
  9
$FILLETRAD
 40
10.0
  9
$AUNITS
 70
0
  9
$AUPREC
 70
2
  9
$MENU
  1
.
  9
$ELEVATION
 40
0.0
  9
$PELEVATION
 40
0.0
  9
$THICKNESS
 40
0.0
  9
$LIMCHECK
 70
0
  9
$CHAMFERA
 40
0.0
  9
$CHAMFERB
 40
0.0
  9
$CHAMFERC
 40
0.0
  9
$CHAMFERD
 40
0.0
  9
$SKPOLY
 70
0
  9
$TDCREATE
 40
2461287.0591203705
  9
$TDUCREATE
 40
2458532.153996898
  9
$TDUPDATE
 40
2461287.0591203705
  9
$TDUUPDATE
 40
2458532.1544311
  9
$TDINDWG
 40
0.0
  9
$TDUSRTIMER
 40
0.0
  9
$USRTIMER
 70
1
  9
$ANGBASE
 50
0.0
  9
$ANGDIR
 70
0
  9
$PDMODE
 70
0
  9
$PDSIZE
 40
0.0
  9
$PLINEWID
 40
0.0
  9
$SPLFRAME
 70
0
  9
$SPLINETYPE
 70
6
  9
$SPLINESEGS
 70
8
  9
$HANDSEED
  5
315
  9
$SURFTAB1
 70
6
  9
$SURFTAB2
 70
6
  9
$SURFTYPE
 70
6
  9
$SURFU
 70
6
  9
$SURFV
 70
6
  9
$UCSBASE
  2

  9
$UCSNAME
  2

  9
$UCSORG
 10
0.0
 20
0.0
 30
0.0
  9
$UCSXDIR
 10
1.0
 20
0.0
 30
0.0
  9
$UCSYDIR
 10
0.0
 20
1.0
 30
0.0
  9
$UCSORTHOREF
  2

  9
$UCSORTHOVIEW
 70
0
  9
$UCSORGTOP
 10
0.0
 20
0.0
 30
0.0
  9
$UCSORGBOTTOM
 10
0.0
 20
0.0
 30
0.0
  9
$UCSORGLEFT
 10
0.0
 20
0.0
 30
0.0
  9
$UCSORGRIGHT
 10
0.0
 20
0.0
 30
0.0
  9
$UCSORGFRONT
 10
0.0
 20
0.0
 30
0.0
  9
$UCSORGBACK
 10
0.0
 20
0.0
 30
0.0
  9
$PUCSBASE
  2

  9
$PUCSNAME
  2

  9
$PUCSORG
 10
0.0
 20
0.0
 30
0.0
  9
$PUCSXDIR
 10
1.0
 20
0.0
 30
0.0
  9
$PUCSYDIR
 10
0.0
 20
1.0
 30
0.0
  9
$PUCSORTHOREF
  2

  9
$PUCSORTHOVIEW
 70
0
  9
$PUCSORGTOP
 10
0.0
 20
0.0
 30
0.0
  9
$PUCSORGBOTTOM
 10
0.0
 20
0.0
 30
0.0
  9
$PUCSORGLEFT
 10
0.0
 20
0.0
 30
0.0
  9
$PUCSORGRIGHT
 10
0.0
 20
0.0
 30
0.0
  9
$PUCSORGFRONT
 10
0.0
 20
0.0
 30
0.0
  9
$PUCSORGBACK
 10
0.0
 20
0.0
 30
0.0
  9
$USERI1
 70
0
  9
$USERI2
 70
0
  9
$USERI3
 70
0
  9
$USERI4
 70
0
  9
$USERI5
 70
0
  9
$USERR1
 40
0.0
  9
$USERR2
 40
0.0
  9
$USERR3
 40
0.0
  9
$USERR4
 40
0.0
  9
$USERR5
 40
0.0
  9
$WORLDVIEW
 70
1
  9
$SHADEDGE
 70
3
  9
$SHADEDIF
 70
70
  9
$TILEMODE
 70
1
  9
$MAXACTVP
 70
64
  9
$PINSBASE
 10
0.0
 20
0.0
 30
0.0
  9
$PLIMCHECK
 70
0
  9
$PEXTMIN
 10
1e+20
 20
1e+20
 30
1e+20
  9
$PEXTMAX
 10
-1e+20
 20
-1e+20
 30
-1e+20
  9
$PLIMMIN
 10
0.0
 20
0.0
  9
$PLIMMAX
 10
420.0
 20
297.0
  9
$UNITMODE
 70
0
  9
$VISRETAIN
 70
1
  9
$PLINEGEN
 70
0
  9
$PSLTSCALE
 70
1
  9
$TREEDEPTH
 70
3020
  9
$CMLSTYLE
  2
Standard
  9
$CMLJUST
 70
0
  9
$CMLSCALE
 40
20.0
  9
$PROXYGRAPHICS
 70
1
  9
$MEASUREMENT
 70
1
  9
$CELWEIGHT
370
-1
  9
$ENDCAPS
280
0
  9
$JOINSTYLE
280
0
  9
$LWDISPLAY
290
0
  9
$INSUNITS
 70
4
  9
$HYPERLINKBASE
  1

  9
$STYLESHEET
  1

  9
$XEDIT
290
1
  9
$CEPSNTYPE
380
0
  9
$PSTYLEMODE
290
1
  9
$FINGERPRINTGUID
  2
{C44E73CD-7087-48DC-AC16-86C3A2FA23D7}
  9
$VERSIONGUID
  2
{91EB9D0B-E343-446D-B85C-B1841EF8B6D2}
  9
$EXTNAMES
290
1
  9
$PSVPSCALE
 40
0.0
  9
$OLESTARTUP
290
0
  9
$SORTENTS
280
127
  9
$INDEXCTL
280
0
  9
$HIDETEXT
280
1
  9
$XCLIPFRAME
280
1
  9
$HALOGAP
280
0
  9
$OBSCOLOR
 70
257
  9
$OBSLTYPE
280
0
  9
$INTERSECTIONDISPLAY
280
0
  9
$INTERSECTIONCOLOR
 70
257
  9
$DIMASSOC
280
2
  9
$PROJECTNAME
  1

  9
$CAMERADISPLAY
290
0
  9
$LENSLENGTH
 40
50.0
  9
$CAMERAHEIGHT
 40
0.0
  9
$STEPSPERSEC
 40
24.0
  9
$STEPSIZE
 40
100.0
  9
$3DDWFPREC
 40
2.0
  9
$PSOLWIDTH
 40
0.005
  9
$PSOLHEIGHT
 40
0.08
  9
$LOFTANG1
 40
1.570796326795
  9
$LOFTANG2
 40
1.570796326795
  9
$LOFTMAG1
 40
0.0
  9
$LOFTMAG2
 40
0.0
  9
$LOFTPARAM
 70
7
  9
$LOFTNORMALS
280
1
  9
$LATITUDE
 40
37.795
  9
$LONGITUDE
 40
-122.394
  9
$NORTHDIRECTION
 40
0.0
  9
$TIMEZONE
 70
-8000
  9
$LIGHTGLYPHDISPLAY
280
1
  9
$TILEMODELIGHTSYNCH
280
1
  9
$CMATERIAL
347
20
  9
$SOLIDHIST
280
0
  9
$SHOWHIST
280
1
  9
$DWFFRAME
280
2
  9
$DGNFRAME
280
2
  9
$REALWORLDSCALE
290
1
  9
$INTERFERECOLOR
 62
256
  9
$CSHADOW
280
0
  9
$SHADOWPLANELOCATION
 40
0.0
  0
ENDSEC
  0
SECTION
  2
CLASSES
  0
CLASS
  1
ACDBDICTIONARYWDFLT
  2
AcDbDictionaryWithDefault
  3
ObjectDBX Classes
 90
0
 91
0
280
0
281
0
  0
CLASS
  1
SUN
  2
AcDbSun
  3
SCENEOE
 90
1153
 91
0
280
0
281
0
  0
CLASS
  1
VISUALSTYLE
  2
AcDbVisualStyle
  3
ObjectDBX Classes
 90
4095
 91
0
280
0
281
0
  0
CLASS
  1
MATERIAL
  2
AcDbMaterial
  3
ObjectDBX Classes
 90
1153
 91
0
280
0
281
0
  0
CLASS
  1
SCALE
  2
AcDbScale
  3
ObjectDBX Classes
 90
1153
 91
0
280
0
281
0
  0
CLASS
  1
TABLESTYLE
  2
AcDbTableStyle
  3
ObjectDBX Classes
 90
4095
 91
0
280
0
281
0
  0
CLASS
  1
MLEADERSTYLE
  2
AcDbMLeaderStyle
  3
ACDB_MLEADERSTYLE_CLASS
 90
4095
 91
0
280
0
281
0
  0
CLASS
  1
DICTIONARYVAR
  2
AcDbDictionaryVar
  3
ObjectDBX Classes
 90
0
 91
0
280
0
281
0
  0
CLASS
  1
CELLSTYLEMAP
  2
AcDbCellStyleMap
  3
ObjectDBX Classes
 90
1152
 91
0
280
0
281
0
  0
CLASS
  1
MENTALRAYRENDERSETTINGS
  2
AcDbMentalRayRenderSettings
  3
SCENEOE
 90
1024
 91
0
280
0
281
0
  0
CLASS
  1
ACDBDETAILVIEWSTYLE
  2
AcDbDetailViewStyle
  3
ObjectDBX Classes
 90
1025
 91
0
280
0
281
0
  0
CLASS
  1
ACDBSECTIONVIEWSTYLE
  2
AcDbSectionViewStyle
  3
ObjectDBX Classes
 90
1025
 91
0
280
0
281
0
  0
CLASS
  1
RASTERVARIABLES
  2
AcDbRasterVariables
  3
ISM
 90
0
 91
0
280
0
281
0
  0
CLASS
  1
LAYOUT
  2
AcDbLayout
  3
ObjectDBX Classes
 90
0
 91
0
280
0
281
0
  0
CLASS
  1
ACDBPLACEHOLDER
  2
AcDbPlaceHolder
  3
ObjectDBX Classes
 90
0
 91
0
280
0
281
0
  0
ENDSEC
  0
SECTION
  2
TABLES
  0
TABLE
  2
VPORT
  5
8
330
0
100
AcDbSymbolTable
 70
1
  0
VPORT
  5
311
330
8
100
AcDbSymbolTableRecord
100
AcDbViewportTableRecord
  2
*Active
 70
0
 10
0.0
 20
0.0
 11
1.0
 21
1.0
 12
177.00000000000003
 22
66.00000000000007
 13
0.0
 23
0.0
 14
0.5
 24
0.5
 15
0.5
 25
0.5
 16
0.0
 26
0.0
 36
1.0
 17
0.0
 27
0.0
 37
0.0
 40
178.60000000000002
 41
1.34
 42
50.0
 43
0.0
 44
0.0
 50
0.0
 51
0.0
 71
0
 72
1000
 73
1
 74
3
 75
0
 76
0
 77
0
 78
0
281
0
 65
1
110
0.0
120
0.0
130
0.0
111
1.0
121
0.0
131
0.0
112
0.0
122
1.0
132
0.0
 79
0
146
0.0
  0
ENDTAB
  0
TABLE
  2
LTYPE
  5
2
330
0
100
AcDbSymbolTable
 70
3
  0
LTYPE
  5
24
330
2
100
AcDbSymbolTableRecord
100
AcDbLinetypeTableRecord
  2
ByBlock
 70
0
  3

 72
65
 73
0
 40
0.0
  0
LTYPE
  5
25
330
2
100
AcDbSymbolTableRecord
100
AcDbLinetypeTableRecord
  2
ByLayer
 70
0
  3

 72
65
 73
0
 40
0.0
  0
LTYPE
  5
26
330
2
100
AcDbSymbolTableRecord
100
AcDbLinetypeTableRecord
  2
Continuous
 70
0
  3

 72
65
 73
0
 40
0.0
  0
ENDTAB
  0
TABLE
  2
LAYER
  5
1
330
0
100
AcDbSymbolTable
 70
2
  0
LAYER
  5
27
330
1
100
AcDbSymbolTableRecord
100
AcDbLayerTableRecord
  2
0
 70
0
 62
7
  6
Continuous
370
-3
390
13
347
21
  0
LAYER
  5
28
330
1
100
AcDbSymbolTableRecord
100
AcDbLayerTableRecord
  2
Defpoints
 70
0
 62
7
  6
Continuous
290
0
370
-3
390
13
347
21
  0
ENDTAB
  0
TABLE
  2
STYLE
  5
5
330
0
100
AcDbSymbolTable
 70
1
  0
STYLE
  5
29
330
5
100
AcDbSymbolTableRecord
100
AcDbTextStyleTableRecord
  2
Standard
 70
0
 40
0.0
 41
1.0
 50
0.0
 71
0
 42
2.5
  3
txt
  4

  0
ENDTAB
  0
TABLE
  2
VIEW
  5
7
330
0
100
AcDbSymbolTable
 70
0
  0
ENDTAB
  0
TABLE
  2
UCS
  5
6
330
0
100
AcDbSymbolTable
 70
0
  0
ENDTAB
  0
TABLE
  2
APPID
  5
3
330
0
100
AcDbSymbolTable
 70
3
  0
APPID
  5
2A
330
3
100
AcDbSymbolTableRecord
100
AcDbRegAppTableRecord
  2
ACAD
 70
0
  0
APPID
  5
312
330
3
100
AcDbSymbolTableRecord
100
AcDbRegAppTableRecord
  2
HATCHBACKGROUNDCOLOR
 70
0
  0
APPID
  5
313
330
3
100
AcDbSymbolTableRecord
100
AcDbRegAppTableRecord
  2
EZDXF
 70
0
  0
ENDTAB
  0
TABLE
  2
DIMSTYLE
  5
4
330
0
100
AcDbSymbolTable
 70
1
100
AcDbDimStyleTable
  0
DIMSTYLE
105
2B
330
4
100
AcDbSymbolTableRecord
100
AcDbDimStyleTableRecord
  2
Standard
 70
0
 40
1.0
 41
2.5
 42
0.625
 43
3.75
 44
1.25
 45
0.0
 46
0.0
 47
0.0
 48
0.0
 49
2.5
140
2.5
141
2.5
142
0.0
143
0.03937007874
144
1.0
145
0.0
146
1.0
147
0.625
148
0.0
 69
0
 70
0
 71
0
 72
0
 73
0
 74
0
 75
0
 76
0
 77
1
 78
8
 79
3
170
0
171
3
172
1
173
0
174
0
175
0
176
0
177
0
178
0
179
2
271
2
272
2
273
2
274
3
275
0
276
0
277
2
278
44
279
0
280
0
281
0
282
0
283
0
284
8
285
0
286
0
288
0
289
3
290
0
371
-2
372
-2
  0
ENDTAB
  0
TABLE
  2
BLOCK_RECORD
  5
9
330
0
100
AcDbSymbolTable
 70
2
  0
BLOCK_RECORD
  5
17
330
9
100
AcDbSymbolTableRecord
100
AcDbBlockTableRecord
  2
*Model_Space
340
1A
 70
0
280
1
281
0
  0
BLOCK_RECORD
  5
1B
330
9
100
AcDbSymbolTableRecord
100
AcDbBlockTableRecord
  2
*Paper_Space
340
1E
 70
0
280
1
281
0
  0
ENDTAB
  0
ENDSEC
  0
SECTION
  2
BLOCKS
  0
BLOCK
  5
18
330
17
100
AcDbEntity
  8
0
100
AcDbBlockBegin
  2
*Model_Space
 70
0
 10
0.0
 20
0.0
 30
0.0
  3
*Model_Space
  1

  0
ENDBLK
  5
19
330
17
100
AcDbEntity
  8
0
100
AcDbBlockEnd
  0
BLOCK
  5
1C
330
1B
100
AcDbEntity
  8
0
100
AcDbBlockBegin
  2
*Paper_Space
 70
0
 10
0.0
 20
0.0
 30
0.0
  3
*Paper_Space
  1

  0
ENDBLK
  5
1D
330
1B
100
AcDbEntity
  8
0
100
AcDbBlockEnd
  0
ENDSEC
  0
SECTION
  2
ENTITIES
  0
LINE
  5
2F
330
17
100
AcDbEntity
  8
0
100
AcDbLine
 10
-1.5999999999999943
 20
121.9999999902295
 30
0.0
 11
-1.5999999999999943
 21
9.99999999999931
 31
0.0
  0
ARC
  5
30
330
17
100
AcDbEntity
  8
0
100
AcDbCircle
 10
10.000000000000028
 20
9.99999999999931
 30
0.0
 40
11.6
100
AcDbArc
 50
180.0
 51
270.0
  0
ARC
  5
31
330
17
100
AcDbEntity
  8
0
100
AcDbCircle
 10
10.000000000000028
 20
121.99999999022951
 30
0.0
 40
11.6
100
AcDbArc
 50
90.0
 51
180.0
  0
LINE
  5
32
330
17
100
AcDbEntity
  8
0
100
AcDbLine
 10
10.000000000000028
 20
-1.5999999999993264
 30
0.0
 11
344.0
 21
-1.5999999999993264
 31
0.0
  0
LINE
  5
33
330
17
100
AcDbEntity
  8
0
100
AcDbLine
 10
288.7613872140696
 20
133.6000000000007
 30
0.0
 11
10.000000000000028
 21
133.6000000000007
 31
0.0
  0
ARC
  5
34
330
17
100
AcDbEntity
  8
0
100
AcDbCircle
 10
344.0
 20
9.99999999999931
 30
0.0
 40
11.6
100
AcDbArc
 50
270.0
 51
360.0
  0
ARC
  5
35
330
17
100
AcDbEntity
  8
0
100
AcDbCircle
 10
291.50000000000006
 20
130.34999999865656
 30
0.0
 40
4.25
100
AcDbArc
 50
130.11916687028034
 51
180.0
  0
LINE
  5
36
330
17
100
AcDbEntity
  8
0
100
AcDbLine
 10
355.6
 20
9.99999999999931
 30
0.0
 11
355.6
 21
121.9999999902295
 31
0.0
  0
LINE
  5
37
330
17
100
AcDbEntity
  8
0
100
AcDbLine
 10
287.25000000000006
 20
106.35
 30
0.0
 11
287.25000000000006
 21
130.34999999865656
 31
0.0
  0
ARC
  5
38
330
17
100
AcDbEntity
  8
0
100
AcDbCircle
 10
344.0
 20
121.99999999022951
 30
0.0
 40
11.6
100
AcDbArc
 50
0.0
 51
89.99999999999997
  0
ARC
  5
39
330
17
100
AcDbEntity
  8
0
100
AcDbCircle
 10
291.49999999999994
 20
106.35
 30
0.0
 40
4.25
100
AcDbArc
 50
-180.0
 51
-90.0
  0
LINE
  5
3A
330
17
100
AcDbEntity
  8
0
100
AcDbLine
 10
344.0
 20
133.6000000000007
 30
0.0
 11
317.03814578630704
 21
133.6000000000007
 31
0.0
  0
LINE
  5
3B
330
17
100
AcDbEntity
  8
0
100
AcDbLine
 10
314.2995329987823
 20
102.1
 30
0.0
 11
291.49999999999994
 21
102.1
 31
0.0
  0
ARC
  5
3C
330
17
100
AcDbEntity
  8
0
100
AcDbCircle
 10
314.2995329987823
 20
130.35000000000002
 30
0.0
 40
4.25
100
AcDbArc
 50
0.0
 51
49.88083310161215
  0
ARC
  5
3D
330
17
100
AcDbEntity
  8
0
100
AcDbCircle
 10
314.2995329987823
 20
106.35
 30
0.0
 40
4.25
100
AcDbArc
 50
-90.0
 51
0.0
  0
LINE
  5
3E
330
17
100
AcDbEntity
  8
0
100
AcDbLine
 10
318.54953300000005
 20
130.35000000000002
 30
0.0
 11
318.54953300000005
 21
106.35
 31
0.0
  0
CIRCLE
  5
3F
330
17
100
AcDbEntity
  8
0
100
AcDbCircle
 10
15.0
 20
5.0
 30
0.0
 40
1.7
  0
CIRCLE
  5
40
330
17
100
AcDbEntity
  8
0
100
AcDbCircle
 10
5.0
 20
15.0
 30
0.0
 40
1.7
  0
ARC
  5
41
330
17
100
AcDbEntity
  8
0
100
AcDbCircle
 10
21.7
 20
12.199999999999939
 30
0.0
 40
1.5
100
AcDbArc
 50
180.0
 51
270.0
  0
LINE
  5
42
330
17
100
AcDbEntity
  8
0
100
AcDbLine
 10
20.2
 20
12.199999999999939
 30
0.0
 11
20.2
 21
24.799999999012428
 31
0.0
  0
LINE
  5
43
330
17
100
AcDbEntity
  8
0
100
AcDbLine
 10
34.299999999012364
 20
10.700000000000063
 30
0.0
 11
21.7
 21
10.700000000000063
 31
0.0
  0
ARC
  5
44
330
17
100
AcDbEntity
  8
0
100
AcDbCircle
 10
21.7
 20
24.799999999012428
 30
0.0
 40
1.5
100
AcDbArc
 50
90.0
 51
180.0
  0
ARC
  5
45
330
17
100
AcDbEntity
  8
0
100
AcDbCircle
 10
34.299999999012364
 20
12.200000000000063
 30
0.0
 40
1.5
100
AcDbArc
 50
270.0
 51
360.0
  0
LINE
  5
46
330
17
100
AcDbEntity
  8
0
100
AcDbLine
 10
21.7
 20
26.300000000000065
 30
0.0
 11
34.3
 21
26.300000000000065
 31
0.0
  0
LINE
  5
47
330
17
100
AcDbEntity
  8
0
100
AcDbLine
 10
35.8
 20
24.799999999012428
 30
0.0
 11
35.8
 21
12.200000000000063
 31
0.0
  0
ARC
  5
48
330
17
100
AcDbEntity
  8
0
100
AcDbCircle
 10
34.3
 20
24.799999999012428
 30
0.0
 40
1.5
100
AcDbArc
 50
0.0
 51
90.0
  0
CIRCLE
  5
49
330
17
100
AcDbEntity
  8
0
100
AcDbCircle
 10
77.0
 20
5.0
 30
0.0
 40
1.7
  0
ARC
  5
4A
330
17
100
AcDbEntity
  8
0
100
AcDbCircle
 10
50.95
 20
12.199999999999939
 30
0.0
 40
1.5
100
AcDbArc
 50
180.0
 51
270.0
  0
LINE
  5
4B
330
17
100
AcDbEntity
  8
0
100
AcDbLine
 10
49.45
 20
12.199999999999939
 30
0.0
 11
49.45
 21
24.799999999012428
 31
0.0
  0
LINE
  5
4C
330
17
100
AcDbEntity
  8
0
100
AcDbLine
 10
63.549999999012364
 20
10.700000000000063
 30
0.0
 11
50.95
 21
10.700000000000063
 31
0.0
  0
ARC
  5
4D
330
17
100
AcDbEntity
  8
0
100
AcDbCircle
 10
50.95
 20
24.799999999012428
 30
0.0
 40
1.5
100
AcDbArc
 50
90.0
 51
180.0
  0
ARC
  5
4E
330
17
100
AcDbEntity
  8
0
100
AcDbCircle
 10
63.549999999012364
 20
12.200000000000063
 30
0.0
 40
1.5
100
AcDbArc
 50
270.0
 51
360.0
  0
LINE
  5
4F
330
17
100
AcDbEntity
  8
0
100
AcDbLine
 10
50.95
 20
26.300000000000065
 30
0.0
 11
63.55
 21
26.300000000000065
 31
0.0
  0
LINE
  5
50
330
17
100
AcDbEntity
  8
0
100
AcDbLine
 10
65.05
 20
24.799999999012428
 30
0.0
 11
65.05
 21
12.200000000000063
 31
0.0
  0
ARC
  5
51
330
17
100
AcDbEntity
  8
0
100
AcDbCircle
 10
63.55
 20
24.799999999012428
 30
0.0
 40
1.5
100
AcDbArc
 50
0.0
 51
90.0
  0
ARC
  5
52
330
17
100
AcDbEntity
  8
0
100
AcDbCircle
 10
73.45
 20
12.200999999999944
 30
0.0
 40
1.5
100
AcDbArc
 50
180.0
 51
270.0
  0
LINE
  5
53
330
17
100
AcDbEntity
  8
0
100
AcDbLine
 10
71.95
 20
12.200999999999944
 30
0.0
 11
71.95
 21
24.800999999012433
 31
0.0
  0
LINE
  5
54
330
17
100
AcDbEntity
  8
0
100
AcDbLine
 10
86.04999999901236
 20
10.701000000000068
 30
0.0
 11
73.45
 21
10.701000000000068
 31
0.0
  0
ARC
  5
55
330
17
100
AcDbEntity
  8
0
100
AcDbCircle
 10
73.45
 20
24.800999999012433
 30
0.0
 40
1.5
100
AcDbArc
 50
90.0
 51
180.0
  0
ARC
  5
56
330
17
100
AcDbEntity
  8
0
100
AcDbCircle
 10
86.04999999901236
 20
12.201000000000068
 30
0.0
 40
1.5
100
AcDbArc
 50
270.0
 51
360.0
  0
LINE
  5
57
330
17
100
AcDbEntity
  8
0
100
AcDbLine
 10
73.45
 20
26.30100000000007
 30
0.0
 11
86.05
 21
26.30100000000007
 31
0.0
  0
LINE
  5
58
330
17
100
AcDbEntity
  8
0
100
AcDbLine
 10
87.55
 20
24.800999999012433
 30
0.0
 11
87.55
 21
12.201000000000068
 31
0.0
  0
ARC
  5
59
330
17
100
AcDbEntity
  8
0
100
AcDbCircle
 10
86.05
 20
24.800999999012433
 30
0.0
 40
1.5
100
AcDbArc
 50
0.0
 51
90.0
  0
ARC
  5
5A
330
17
100
AcDbEntity
  8
0
100
AcDbCircle
 10
94.87499999999999
 20
12.729999999999993
 30
0.0
 40
1.5
100
AcDbArc
 50
-180.0
 51
-90.0
  0
LINE
  5
5B
330
17
100
AcDbEntity
  8
0
100
AcDbLine
 10
99.62499998482106
 20
11.229999999999993
 30
0.0
 11
94.87499999999999
 21
11.229999999999993
 31
0.0
  0
LINE
  5
5C
330
17
100
AcDbEntity
  8
0
100
AcDbLine
 10
93.375
 20
12.729999999999993
 30
0.0
 11
93.375
 21
23.029999999999998
 31
0.0
  0
ARC
  5
5D
330
17
100
AcDbEntity
  8
0
100
AcDbCircle
 10
99.62499998482106
 20
12.729999999999993
 30
0.0
 40
1.5
100
AcDbArc
 50
-90.0
 51
0.0
  0
ARC
  5
5E
330
17
100
AcDbEntity
  8
0
100
AcDbCircle
 10
94.87499999999999
 20
23.029999999999998
 30
0.0
 40
1.5
100
AcDbArc
 50
90.0
 51
180.0
  0
LINE
  5
5F
330
17
100
AcDbEntity
  8
0
100
AcDbLine
 10
101.125
 20
23.029999999999998
 30
0.0
 11
101.125
 21
12.729999999999993
 31
0.0
  0
LINE
  5
60
330
17
100
AcDbEntity
  8
0
100
AcDbLine
 10
94.87499999999999
 20
24.529999999999998
 30
0.0
 11
99.62499998482106
 21
24.529999999999998
 31
0.0
  0
ARC
  5
61
330
17
100
AcDbEntity
  8
0
100
AcDbCircle
 10
99.62499998482106
 20
23.029999999999998
 30
0.0
 40
1.5
100
AcDbArc
 50
0.0
 51
90.0
  0
CIRCLE
  5
62
330
17
100
AcDbEntity
  8
0
100
AcDbCircle
 10
147.0
 20
5.0
 30
0.0
 40
1.7
  0
ARC
  5
63
330
17
100
AcDbEntity
  8
0
100
AcDbCircle
 10
140.95
 20
12.200999999999944
 30
0.0
 40
1.5
100
AcDbArc
 50
180.0
 51
270.0
  0
LINE
  5
64
330
17
100
AcDbEntity
  8
0
100
AcDbLine
 10
139.45
 20
12.200999999999944
 30
0.0
 11
139.45
 21
24.800999999012433
 31
0.0
  0
LINE
  5
65
330
17
100
AcDbEntity
  8
0
100
AcDbLine
 10
153.54999999901236
 20
10.701000000000068
 30
0.0
 11
140.95
 21
10.701000000000068
 31
0.0
  0
ARC
  5
66
330
17
100
AcDbEntity
  8
0
100
AcDbCircle
 10
140.95
 20
24.800999999012433
 30
0.0
 40
1.5
100
AcDbArc
 50
90.0
 51
180.0
  0
ARC
  5
67
330
17
100
AcDbEntity
  8
0
100
AcDbCircle
 10
153.54999999901236
 20
12.201000000000068
 30
0.0
 40
1.5
100
AcDbArc
 50
270.0
 51
360.0
  0
LINE
  5
68
330
17
100
AcDbEntity
  8
0
100
AcDbLine
 10
140.95
 20
26.30100000000007
 30
0.0
 11
153.55
 21
26.30100000000007
 31
0.0
  0
LINE
  5
69
330
17
100
AcDbEntity
  8
0
100
AcDbLine
 10
155.05
 20
24.800999999012433
 30
0.0
 11
155.05
 21
12.201000000000068
 31
0.0
  0
ARC
  5
6A
330
17
100
AcDbEntity
  8
0
100
AcDbCircle
 10
153.55
 20
24.800999999012433
 30
0.0
 40
1.5
100
AcDbArc
 50
0.0
 51
90.0
  0
ARC
  5
6B
330
17
100
AcDbEntity
  8
0
100
AcDbCircle
 10
15.937
 20
29.19999999999994
 30
0.0
 40
1.5
100
AcDbArc
 50
180.0
 51
270.0
  0
LINE
  5
6C
330
17
100
AcDbEntity
  8
0
100
AcDbLine
 10
14.437
 20
29.19999999999994
 30
0.0
 11
14.437
 21
41.79999999901243
 31
0.0
  0
LINE
  5
6D
330
17
100
AcDbEntity
  8
0
100
AcDbLine
 10
44.563
 20
27.700000000000063
 30
0.0
 11
15.937
 21
27.700000000000063
 31
0.0
  0
ARC
  5
6E
330
17
100
AcDbEntity
  8
0
100
AcDbCircle
 10
15.937
 20
41.79999999901243
 30
0.0
 40
1.5
100
AcDbArc
 50
90.0
 51
180.0
  0
ARC
  5
6F
330
17
100
AcDbEntity
  8
0
100
AcDbCircle
 10
44.563
 20
29.19999999999994
 30
0.0
 40
1.5
100
AcDbArc
 50
270.0
 51
360.0
  0
LINE
  5
70
330
17
100
AcDbEntity
  8
0
100
AcDbLine
 10
15.937
 20
43.30000000000006
 30
0.0
 11
44.563
 21
43.30000000000006
 31
0.0
  0
LINE
  5
71
330
17
100
AcDbEntity
  8
0
100
AcDbLine
 10
46.063
 20
41.79999999901243
 30
0.0
 11
46.063
 21
29.19999999999994
 31
0.0
  0
ARC
  5
72
330
17
100
AcDbEntity
  8
0
100
AcDbCircle
 10
44.563
 20
41.79999999901243
 30
0.0
 40
1.5
100
AcDbArc
 50
0.0
 51
90.0
  0
ARC
  5
73
330
17
100
AcDbEntity
  8
0
100
AcDbCircle
 10
53.2
 20
29.19999999999994
 30
0.0
 40
1.5
100
AcDbArc
 50
180.0
 51
270.0
  0
LINE
  5
74
330
17
100
AcDbEntity
  8
0
100
AcDbLine
 10
51.7
 20
29.19999999999994
 30
0.0
 11
51.7
 21
41.79999999901243
 31
0.0
  0
LINE
  5
75
330
17
100
AcDbEntity
  8
0
100
AcDbLine
 10
65.79999999901236
 20
27.700000000000063
 30
0.0
 11
53.2
 21
27.700000000000063
 31
0.0
  0
ARC
  5
76
330
17
100
AcDbEntity
  8
0
100
AcDbCircle
 10
53.2
 20
41.79999999901243
 30
0.0
 40
1.5
100
AcDbArc
 50
90.0
 51
180.0
  0
ARC
  5
77
330
17
100
AcDbEntity
  8
0
100
AcDbCircle
 10
65.79999999901236
 20
29.200000000000063
 30
0.0
 40
1.5
100
AcDbArc
 50
270.0
 51
360.0
  0
LINE
  5
78
330
17
100
AcDbEntity
  8
0
100
AcDbLine
 10
53.2
 20
43.30000000000006
 30
0.0
 11
65.8
 21
43.30000000000006
 31
0.0
  0
LINE
  5
79
330
17
100
AcDbEntity
  8
0
100
AcDbLine
 10
67.3
 20
41.79999999901243
 30
0.0
 11
67.3
 21
29.200000000000063
 31
0.0
  0
ARC
  5
7A
330
17
100
AcDbEntity
  8
0
100
AcDbCircle
 10
65.8
 20
41.79999999901243
 30
0.0
 40
1.5
100
AcDbArc
 50
0.0
 51
90.0
  0
ARC
  5
7B
330
17
100
AcDbEntity
  8
0
100
AcDbCircle
 10
71.2
 20
29.19999999999994
 30
0.0
 40
1.5
100
AcDbArc
 50
180.0
 51
270.0
  0
LINE
  5
7C
330
17
100
AcDbEntity
  8
0
100
AcDbLine
 10
69.7
 20
29.19999999999994
 30
0.0
 11
69.7
 21
41.79999999901243
 31
0.0
  0
LINE
  5
7D
330
17
100
AcDbEntity
  8
0
100
AcDbLine
 10
83.79999999901236
 20
27.700000000000063
 30
0.0
 11
71.2
 21
27.700000000000063
 31
0.0
  0
ARC
  5
7E
330
17
100
AcDbEntity
  8
0
100
AcDbCircle
 10
71.2
 20
41.79999999901243
 30
0.0
 40
1.5
100
AcDbArc
 50
90.0
 51
180.0
  0
ARC
  5
7F
330
17
100
AcDbEntity
  8
0
100
AcDbCircle
 10
83.79999999901236
 20
29.200000000000063
 30
0.0
 40
1.5
100
AcDbArc
 50
270.0
 51
360.0
  0
LINE
  5
80
330
17
100
AcDbEntity
  8
0
100
AcDbLine
 10
71.2
 20
43.30000000000006
 30
0.0
 11
83.8
 21
43.30000000000006
 31
0.0
  0
LINE
  5
81
330
17
100
AcDbEntity
  8
0
100
AcDbLine
 10
85.3
 20
41.79999999901243
 30
0.0
 11
85.3
 21
29.200000000000063
 31
0.0
  0
ARC
  5
82
330
17
100
AcDbEntity
  8
0
100
AcDbCircle
 10
83.8
 20
41.79999999901243
 30
0.0
 40
1.5
100
AcDbArc
 50
0.0
 51
90.0
  0
ARC
  5
83
330
17
100
AcDbEntity
  8
0
100
AcDbCircle
 10
11.437
 20
46.19999999999994
 30
0.0
 40
1.5
100
AcDbArc
 50
180.0
 51
270.0
  0
LINE
  5
84
330
17
100
AcDbEntity
  8
0
100
AcDbLine
 10
9.937
 20
46.19999999999994
 30
0.0
 11
9.937
 21
58.79999999901243
 31
0.0
  0
LINE
  5
85
330
17
100
AcDbEntity
  8
0
100
AcDbLine
 10
40.063
 20
44.70000000000007
 30
0.0
 11
11.437
 21
44.70000000000007
 31
0.0
  0
ARC
  5
86
330
17
100
AcDbEntity
  8
0
100
AcDbCircle
 10
11.437
 20
58.79999999901243
 30
0.0
 40
1.5
100
AcDbArc
 50
90.0
 51
180.0
  0
ARC
  5
87
330
17
100
AcDbEntity
  8
0
100
AcDbCircle
 10
40.063
 20
46.19999999999994
 30
0.0
 40
1.5
100
AcDbArc
 50
270.0
 51
360.0
  0
LINE
  5
88
330
17
100
AcDbEntity
  8
0
100
AcDbLine
 10
11.437
 20
60.30000000000006
 30
0.0
 11
40.063
 21
60.30000000000006
 31
0.0
  0
LINE
  5
89
330
17
100
AcDbEntity
  8
0
100
AcDbLine
 10
41.563
 20
58.79999999901243
 30
0.0
 11
41.563
 21
46.19999999999994
 31
0.0
  0
ARC
  5
8A
330
17
100
AcDbEntity
  8
0
100
AcDbCircle
 10
40.063
 20
58.79999999901243
 30
0.0
 40
1.5
100
AcDbArc
 50
0.0
 51
90.0
  0
ARC
  5
8B
330
17
100
AcDbEntity
  8
0
100
AcDbCircle
 10
44.2
 20
46.19999999999994
 30
0.0
 40
1.5
100
AcDbArc
 50
180.0
 51
270.0
  0
LINE
  5
8C
330
17
100
AcDbEntity
  8
0
100
AcDbLine
 10
42.7
 20
46.19999999999994
 30
0.0
 11
42.7
 21
58.79999999901243
 31
0.0
  0
LINE
  5
8D
330
17
100
AcDbEntity
  8
0
100
AcDbLine
 10
56.799999999012364
 20
44.70000000000007
 30
0.0
 11
44.2
 21
44.70000000000007
 31
0.0
  0
ARC
  5
8E
330
17
100
AcDbEntity
  8
0
100
AcDbCircle
 10
44.2
 20
58.79999999901243
 30
0.0
 40
1.5
100
AcDbArc
 50
90.0
 51
180.0
  0
ARC
  5
8F
330
17
100
AcDbEntity
  8
0
100
AcDbCircle
 10
56.799999999012364
 20
46.20000000000007
 30
0.0
 40
1.5
100
AcDbArc
 50
270.0
 51
360.0
  0
LINE
  5
90
330
17
100
AcDbEntity
  8
0
100
AcDbLine
 10
44.2
 20
60.30000000000006
 30
0.0
 11
56.8
 21
60.30000000000006
 31
0.0
  0
LINE
  5
91
330
17
100
AcDbEntity
  8
0
100
AcDbLine
 10
58.3
 20
58.79999999901243
 30
0.0
 11
58.3
 21
46.20000000000007
 31
0.0
  0
ARC
  5
92
330
17
100
AcDbEntity
  8
0
100
AcDbCircle
 10
56.8
 20
58.79999999901243
 30
0.0
 40
1.5
100
AcDbArc
 50
0.0
 51
90.0
  0
ARC
  5
93
330
17
100
AcDbEntity
  8
0
100
AcDbCircle
 10
62.2
 20
46.200999999999944
 30
0.0
 40
1.5
100
AcDbArc
 50
180.0
 51
270.0
  0
LINE
  5
94
330
17
100
AcDbEntity
  8
0
100
AcDbLine
 10
60.7
 20
46.200999999999944
 30
0.0
 11
60.7
 21
58.80099999901243
 31
0.0
  0
LINE
  5
95
330
17
100
AcDbEntity
  8
0
100
AcDbLine
 10
74.79999999901236
 20
44.70100000000007
 30
0.0
 11
62.2
 21
44.70100000000007
 31
0.0
  0
ARC
  5
96
330
17
100
AcDbEntity
  8
0
100
AcDbCircle
 10
62.2
 20
58.80099999901243
 30
0.0
 40
1.5
100
AcDbArc
 50
90.0
 51
180.0
  0
ARC
  5
97
330
17
100
AcDbEntity
  8
0
100
AcDbCircle
 10
74.79999999901236
 20
46.20100000000007
 30
0.0
 40
1.5
100
AcDbArc
 50
270.0
 51
360.0
  0
LINE
  5
98
330
17
100
AcDbEntity
  8
0
100
AcDbLine
 10
62.2
 20
60.301000000000066
 30
0.0
 11
74.8
 21
60.301000000000066
 31
0.0
  0
LINE
  5
99
330
17
100
AcDbEntity
  8
0
100
AcDbLine
 10
76.3
 20
58.80099999901243
 30
0.0
 11
76.3
 21
46.20100000000007
 31
0.0
  0
ARC
  5
9A
330
17
100
AcDbEntity
  8
0
100
AcDbCircle
 10
74.8
 20
58.80099999901243
 30
0.0
 40
1.5
100
AcDbArc
 50
0.0
 51
90.0
  0
ARC
  5
9B
330
17
100
AcDbEntity
  8
0
100
AcDbCircle
 10
80.2
 20
46.200999999999944
 30
0.0
 40
1.5
100
AcDbArc
 50
180.0
 51
270.0
  0
LINE
  5
9C
330
17
100
AcDbEntity
  8
0
100
AcDbLine
 10
78.7
 20
46.200999999999944
 30
0.0
 11
78.7
 21
58.80099999901243
 31
0.0
  0
LINE
  5
9D
330
17
100
AcDbEntity
  8
0
100
AcDbLine
 10
92.79999999901236
 20
44.70100000000007
 30
0.0
 11
80.2
 21
44.70100000000007
 31
0.0
  0
ARC
  5
9E
330
17
100
AcDbEntity
  8
0
100
AcDbCircle
 10
80.2
 20
58.80099999901243
 30
0.0
 40
1.5
100
AcDbArc
 50
90.0
 51
180.0
  0
ARC
  5
9F
330
17
100
AcDbEntity
  8
0
100
AcDbCircle
 10
92.79999999901236
 20
46.20100000000007
 30
0.0
 40
1.5
100
AcDbArc
 50
270.0
 51
360.0
  0
LINE
  5
A0
330
17
100
AcDbEntity
  8
0
100
AcDbLine
 10
80.2
 20
60.301000000000066
 30
0.0
 11
92.8
 21
60.301000000000066
 31
0.0
  0
LINE
  5
A1
330
17
100
AcDbEntity
  8
0
100
AcDbLine
 10
94.3
 20
58.80099999901243
 30
0.0
 11
94.3
 21
46.20100000000007
 31
0.0
  0
ARC
  5
A2
330
17
100
AcDbEntity
  8
0
100
AcDbCircle
 10
92.8
 20
58.80099999901243
 30
0.0
 40
1.5
100
AcDbArc
 50
0.0
 51
90.0
  0
ARC
  5
A3
330
17
100
AcDbEntity
  8
0
100
AcDbCircle
 10
89.2
 20
29.200999999999944
 30
0.0
 40
1.5
100
AcDbArc
 50
180.0
 51
270.0
  0
LINE
  5
A4
330
17
100
AcDbEntity
  8
0
100
AcDbLine
 10
87.7
 20
29.200999999999944
 30
0.0
 11
87.7
 21
41.80099999901243
 31
0.0
  0
LINE
  5
A5
330
17
100
AcDbEntity
  8
0
100
AcDbLine
 10
101.79999999901236
 20
27.701000000000068
 30
0.0
 11
89.2
 21
27.701000000000068
 31
0.0
  0
ARC
  5
A6
330
17
100
AcDbEntity
  8
0
100
AcDbCircle
 10
89.2
 20
41.80099999901243
 30
0.0
 40
1.5
100
AcDbArc
 50
90.0
 51
180.0
  0
ARC
  5
A7
330
17
100
AcDbEntity
  8
0
100
AcDbCircle
 10
101.79999999901236
 20
29.201000000000068
 30
0.0
 40
1.5
100
AcDbArc
 50
270.0
 51
360.0
  0
LINE
  5
A8
330
17
100
AcDbEntity
  8
0
100
AcDbLine
 10
89.2
 20
43.301000000000066
 30
0.0
 11
101.8
 21
43.301000000000066
 31
0.0
  0
LINE
  5
A9
330
17
100
AcDbEntity
  8
0
100
AcDbLine
 10
103.3
 20
41.80099999901243
 30
0.0
 11
103.3
 21
29.201000000000068
 31
0.0
  0
ARC
  5
AA
330
17
100
AcDbEntity
  8
0
100
AcDbCircle
 10
101.8
 20
41.80099999901243
 30
0.0
 40
1.5
100
AcDbArc
 50
0.0
 51
90.0
  0
ARC
  5
AB
330
17
100
AcDbEntity
  8
0
100
AcDbCircle
 10
107.2
 20
29.200999999999944
 30
0.0
 40
1.5
100
AcDbArc
 50
180.0
 51
270.0
  0
LINE
  5
AC
330
17
100
AcDbEntity
  8
0
100
AcDbLine
 10
105.7
 20
29.200999999999944
 30
0.0
 11
105.7
 21
41.80099999901243
 31
0.0
  0
LINE
  5
AD
330
17
100
AcDbEntity
  8
0
100
AcDbLine
 10
119.79999999901236
 20
27.701000000000068
 30
0.0
 11
107.2
 21
27.701000000000068
 31
0.0
  0
ARC
  5
AE
330
17
100
AcDbEntity
  8
0
100
AcDbCircle
 10
107.2
 20
41.80099999901243
 30
0.0
 40
1.5
100
AcDbArc
 50
90.0
 51
180.0
  0
ARC
  5
AF
330
17
100
AcDbEntity
  8
0
100
AcDbCircle
 10
119.79999999901236
 20
29.201000000000068
 30
0.0
 40
1.5
100
AcDbArc
 50
270.0
 51
360.0
  0
LINE
  5
B0
330
17
100
AcDbEntity
  8
0
100
AcDbLine
 10
107.2
 20
43.301000000000066
 30
0.0
 11
119.8
 21
43.301000000000066
 31
0.0
  0
LINE
  5
B1
330
17
100
AcDbEntity
  8
0
100
AcDbLine
 10
121.3
 20
41.80099999901243
 30
0.0
 11
121.3
 21
29.201000000000068
 31
0.0
  0
ARC
  5
B2
330
17
100
AcDbEntity
  8
0
100
AcDbCircle
 10
119.8
 20
41.80099999901243
 30
0.0
 40
1.5
100
AcDbArc
 50
0.0
 51
90.0
  0
ARC
  5
B3
330
17
100
AcDbEntity
  8
0
100
AcDbCircle
 10
125.2
 20
29.200999999999944
 30
0.0
 40
1.5
100
AcDbArc
 50
180.0
 51
270.0
  0
LINE
  5
B4
330
17
100
AcDbEntity
  8
0
100
AcDbLine
 10
123.7
 20
29.200999999999944
 30
0.0
 11
123.7
 21
41.80099999901243
 31
0.0
  0
LINE
  5
B5
330
17
100
AcDbEntity
  8
0
100
AcDbLine
 10
137.79999999901236
 20
27.701000000000068
 30
0.0
 11
125.2
 21
27.701000000000068
 31
0.0
  0
ARC
  5
B6
330
17
100
AcDbEntity
  8
0
100
AcDbCircle
 10
125.2
 20
41.80099999901243
 30
0.0
 40
1.5
100
AcDbArc
 50
90.0
 51
180.0
  0
ARC
  5
B7
330
17
100
AcDbEntity
  8
0
100
AcDbCircle
 10
137.79999999901236
 20
29.201000000000068
 30
0.0
 40
1.5
100
AcDbArc
 50
270.0
 51
360.0
  0
LINE
  5
B8
330
17
100
AcDbEntity
  8
0
100
AcDbLine
 10
125.2
 20
43.301000000000066
 30
0.0
 11
137.8
 21
43.301000000000066
 31
0.0
  0
LINE
  5
B9
330
17
100
AcDbEntity
  8
0
100
AcDbLine
 10
139.3
 20
41.80099999901243
 30
0.0
 11
139.3
 21
29.201000000000068
 31
0.0
  0
ARC
  5
BA
330
17
100
AcDbEntity
  8
0
100
AcDbCircle
 10
137.8
 20
41.80099999901243
 30
0.0
 40
1.5
100
AcDbArc
 50
0.0
 51
90.0
  0
ARC
  5
BB
330
17
100
AcDbEntity
  8
0
100
AcDbCircle
 10
143.2
 20
29.200999999999944
 30
0.0
 40
1.5
100
AcDbArc
 50
180.0
 51
270.0
  0
LINE
  5
BC
330
17
100
AcDbEntity
  8
0
100
AcDbLine
 10
141.7
 20
29.200999999999944
 30
0.0
 11
141.7
 21
41.80099999901243
 31
0.0
  0
LINE
  5
BD
330
17
100
AcDbEntity
  8
0
100
AcDbLine
 10
155.79999999901236
 20
27.701000000000068
 30
0.0
 11
143.2
 21
27.701000000000068
 31
0.0
  0
ARC
  5
BE
330
17
100
AcDbEntity
  8
0
100
AcDbCircle
 10
143.2
 20
41.80099999901243
 30
0.0
 40
1.5
100
AcDbArc
 50
90.0
 51
180.0
  0
ARC
  5
BF
330
17
100
AcDbEntity
  8
0
100
AcDbCircle
 10
155.79999999901236
 20
29.201000000000068
 30
0.0
 40
1.5
100
AcDbArc
 50
270.0
 51
360.0
  0
LINE
  5
C0
330
17
100
AcDbEntity
  8
0
100
AcDbLine
 10
143.2
 20
43.301000000000066
 30
0.0
 11
155.8
 21
43.301000000000066
 31
0.0
  0
LINE
  5
C1
330
17
100
AcDbEntity
  8
0
100
AcDbLine
 10
157.3
 20
41.80099999901243
 30
0.0
 11
157.3
 21
29.201000000000068
 31
0.0
  0
ARC
  5
C2
330
17
100
AcDbEntity
  8
0
100
AcDbCircle
 10
155.8
 20
41.80099999901243
 30
0.0
 40
1.5
100
AcDbArc
 50
0.0
 51
90.0
  0
ARC
  5
C3
330
17
100
AcDbEntity
  8
0
100
AcDbCircle
 10
161.2
 20
29.200999999999944
 30
0.0
 40
1.5
100
AcDbArc
 50
180.0
 51
270.0
  0
LINE
  5
C4
330
17
100
AcDbEntity
  8
0
100
AcDbLine
 10
159.7
 20
29.200999999999944
 30
0.0
 11
159.7
 21
41.80099999901243
 31
0.0
  0
LINE
  5
C5
330
17
100
AcDbEntity
  8
0
100
AcDbLine
 10
173.79999999901236
 20
27.701000000000068
 30
0.0
 11
161.2
 21
27.701000000000068
 31
0.0
  0
ARC
  5
C6
330
17
100
AcDbEntity
  8
0
100
AcDbCircle
 10
161.2
 20
41.80099999901243
 30
0.0
 40
1.5
100
AcDbArc
 50
90.0
 51
180.0
  0
ARC
  5
C7
330
17
100
AcDbEntity
  8
0
100
AcDbCircle
 10
173.79999999901236
 20
29.201000000000068
 30
0.0
 40
1.5
100
AcDbArc
 50
270.0
 51
360.0
  0
LINE
  5
C8
330
17
100
AcDbEntity
  8
0
100
AcDbLine
 10
161.2
 20
43.301000000000066
 30
0.0
 11
173.8
 21
43.301000000000066
 31
0.0
  0
LINE
  5
C9
330
17
100
AcDbEntity
  8
0
100
AcDbLine
 10
175.3
 20
41.80099999901243
 30
0.0
 11
175.3
 21
29.201000000000068
 31
0.0
  0
ARC
  5
CA
330
17
100
AcDbEntity
  8
0
100
AcDbCircle
 10
173.8
 20
41.80099999901243
 30
0.0
 40
1.5
100
AcDbArc
 50
0.0
 51
90.0
  0
ARC
  5
CB
330
17
100
AcDbEntity
  8
0
100
AcDbCircle
 10
98.2
 20
46.19999999999994
 30
0.0
 40
1.5
100
AcDbArc
 50
180.0
 51
270.0
  0
LINE
  5
CC
330
17
100
AcDbEntity
  8
0
100
AcDbLine
 10
96.7
 20
46.19999999999994
 30
0.0
 11
96.7
 21
58.79999999901243
 31
0.0
  0
LINE
  5
CD
330
17
100
AcDbEntity
  8
0
100
AcDbLine
 10
110.79999999901236
 20
44.70000000000007
 30
0.0
 11
98.2
 21
44.70000000000007
 31
0.0
  0
ARC
  5
CE
330
17
100
AcDbEntity
  8
0
100
AcDbCircle
 10
98.2
 20
58.79999999901243
 30
0.0
 40
1.5
100
AcDbArc
 50
90.0
 51
180.0
  0
ARC
  5
CF
330
17
100
AcDbEntity
  8
0
100
AcDbCircle
 10
110.79999999901236
 20
46.20000000000007
 30
0.0
 40
1.5
100
AcDbArc
 50
270.0
 51
360.0
  0
LINE
  5
D0
330
17
100
AcDbEntity
  8
0
100
AcDbLine
 10
98.2
 20
60.30000000000006
 30
0.0
 11
110.8
 21
60.30000000000006
 31
0.0
  0
LINE
  5
D1
330
17
100
AcDbEntity
  8
0
100
AcDbLine
 10
112.3
 20
58.79999999901243
 30
0.0
 11
112.3
 21
46.20000000000007
 31
0.0
  0
ARC
  5
D2
330
17
100
AcDbEntity
  8
0
100
AcDbCircle
 10
110.8
 20
58.79999999901243
 30
0.0
 40
1.5
100
AcDbArc
 50
0.0
 51
90.0
  0
ARC
  5
D3
330
17
100
AcDbEntity
  8
0
100
AcDbCircle
 10
116.2
 20
46.200999999999944
 30
0.0
 40
1.5
100
AcDbArc
 50
180.0
 51
270.0
  0
LINE
  5
D4
330
17
100
AcDbEntity
  8
0
100
AcDbLine
 10
114.7
 20
46.200999999999944
 30
0.0
 11
114.7
 21
58.80099999901243
 31
0.0
  0
LINE
  5
D5
330
17
100
AcDbEntity
  8
0
100
AcDbLine
 10
128.79999999901236
 20
44.70100000000007
 30
0.0
 11
116.2
 21
44.70100000000007
 31
0.0
  0
ARC
  5
D6
330
17
100
AcDbEntity
  8
0
100
AcDbCircle
 10
116.2
 20
58.80099999901243
 30
0.0
 40
1.5
100
AcDbArc
 50
90.0
 51
180.0
  0
ARC
  5
D7
330
17
100
AcDbEntity
  8
0
100
AcDbCircle
 10
128.79999999901236
 20
46.20100000000007
 30
0.0
 40
1.5
100
AcDbArc
 50
270.0
 51
360.0
  0
LINE
  5
D8
330
17
100
AcDbEntity
  8
0
100
AcDbLine
 10
116.2
 20
60.301000000000066
 30
0.0
 11
128.8
 21
60.301000000000066
 31
0.0
  0
LINE
  5
D9
330
17
100
AcDbEntity
  8
0
100
AcDbLine
 10
130.3
 20
58.80099999901243
 30
0.0
 11
130.3
 21
46.20100000000007
 31
0.0
  0
ARC
  5
DA
330
17
100
AcDbEntity
  8
0
100
AcDbCircle
 10
128.8
 20
58.80099999901243
 30
0.0
 40
1.5
100
AcDbArc
 50
0.0
 51
90.0
  0
ARC
  5
DB
330
17
100
AcDbEntity
  8
0
100
AcDbCircle
 10
134.2
 20
46.200999999999944
 30
0.0
 40
1.5
100
AcDbArc
 50
180.0
 51
270.0
  0
LINE
  5
DC
330
17
100
AcDbEntity
  8
0
100
AcDbLine
 10
132.7
 20
46.200999999999944
 30
0.0
 11
132.7
 21
58.80099999901243
 31
0.0
  0
LINE
  5
DD
330
17
100
AcDbEntity
  8
0
100
AcDbLine
 10
146.79999999901236
 20
44.70100000000007
 30
0.0
 11
134.2
 21
44.70100000000007
 31
0.0
  0
ARC
  5
DE
330
17
100
AcDbEntity
  8
0
100
AcDbCircle
 10
134.2
 20
58.80099999901243
 30
0.0
 40
1.5
100
AcDbArc
 50
90.0
 51
180.0
  0
ARC
  5
DF
330
17
100
AcDbEntity
  8
0
100
AcDbCircle
 10
146.79999999901236
 20
46.20100000000007
 30
0.0
 40
1.5
100
AcDbArc
 50
270.0
 51
360.0
  0
LINE
  5
E0
330
17
100
AcDbEntity
  8
0
100
AcDbLine
 10
134.2
 20
60.301000000000066
 30
0.0
 11
146.8
 21
60.301000000000066
 31
0.0
  0
LINE
  5
E1
330
17
100
AcDbEntity
  8
0
100
AcDbLine
 10
148.3
 20
58.80099999901243
 30
0.0
 11
148.3
 21
46.20100000000007
 31
0.0
  0
ARC
  5
E2
330
17
100
AcDbEntity
  8
0
100
AcDbCircle
 10
146.8
 20
58.80099999901243
 30
0.0
 40
1.5
100
AcDbArc
 50
0.0
 51
90.0
  0
ARC
  5
E3
330
17
100
AcDbEntity
  8
0
100
AcDbCircle
 10
152.2
 20
46.19999999999994
 30
0.0
 40
1.5
100
AcDbArc
 50
180.0
 51
270.0
  0
LINE
  5
E4
330
17
100
AcDbEntity
  8
0
100
AcDbLine
 10
150.7
 20
46.19999999999994
 30
0.0
 11
150.7
 21
58.79999999901243
 31
0.0
  0
LINE
  5
E5
330
17
100
AcDbEntity
  8
0
100
AcDbLine
 10
164.79999999901236
 20
44.70000000000007
 30
0.0
 11
152.2
 21
44.70000000000007
 31
0.0
  0
ARC
  5
E6
330
17
100
AcDbEntity
  8
0
100
AcDbCircle
 10
152.2
 20
58.79999999901243
 30
0.0
 40
1.5
100
AcDbArc
 50
90.0
 51
180.0
  0
ARC
  5
E7
330
17
100
AcDbEntity
  8
0
100
AcDbCircle
 10
164.79999999901236
 20
46.20000000000007
 30
0.0
 40
1.5
100
AcDbArc
 50
270.0
 51
360.0
  0
LINE
  5
E8
330
17
100
AcDbEntity
  8
0
100
AcDbLine
 10
152.2
 20
60.30000000000006
 30
0.0
 11
164.8
 21
60.30000000000006
 31
0.0
  0
LINE
  5
E9
330
17
100
AcDbEntity
  8
0
100
AcDbLine
 10
166.3
 20
58.79999999901243
 30
0.0
 11
166.3
 21
46.20000000000007
 31
0.0
  0
ARC
  5
EA
330
17
100
AcDbEntity
  8
0
100
AcDbCircle
 10
164.8
 20
58.79999999901243
 30
0.0
 40
1.5
100
AcDbArc
 50
0.0
 51
90.0
  0
ARC
  5
EB
330
17
100
AcDbEntity
  8
0
100
AcDbCircle
 10
170.2
 20
46.200999999999944
 30
0.0
 40
1.5
100
AcDbArc
 50
180.0
 51
270.0
  0
LINE
  5
EC
330
17
100
AcDbEntity
  8
0
100
AcDbLine
 10
168.7
 20
46.200999999999944
 30
0.0
 11
168.7
 21
58.80099999901243
 31
0.0
  0
LINE
  5
ED
330
17
100
AcDbEntity
  8
0
100
AcDbLine
 10
182.79999999901236
 20
44.70100000000007
 30
0.0
 11
170.2
 21
44.70100000000007
 31
0.0
  0
ARC
  5
EE
330
17
100
AcDbEntity
  8
0
100
AcDbCircle
 10
170.2
 20
58.80099999901243
 30
0.0
 40
1.5
100
AcDbArc
 50
90.0
 51
180.0
  0
ARC
  5
EF
330
17
100
AcDbEntity
  8
0
100
AcDbCircle
 10
182.79999999901236
 20
46.20100000000007
 30
0.0
 40
1.5
100
AcDbArc
 50
270.0
 51
360.0
  0
LINE
  5
F0
330
17
100
AcDbEntity
  8
0
100
AcDbLine
 10
170.2
 20
60.301000000000066
 30
0.0
 11
182.8
 21
60.301000000000066
 31
0.0
  0
LINE
  5
F1
330
17
100
AcDbEntity
  8
0
100
AcDbLine
 10
184.3
 20
58.80099999901243
 30
0.0
 11
184.3
 21
46.20100000000007
 31
0.0
  0
ARC
  5
F2
330
17
100
AcDbEntity
  8
0
100
AcDbCircle
 10
182.8
 20
58.80099999901243
 30
0.0
 40
1.5
100
AcDbArc
 50
0.0
 51
90.0
  0
CIRCLE
  5
F3
330
17
100
AcDbEntity
  8
0
100
AcDbCircle
 10
217.0
 20
5.0
 30
0.0
 40
1.7
  0
ARC
  5
F4
330
17
100
AcDbEntity
  8
0
100
AcDbCircle
 10
194.875
 20
12.729999999999993
 30
0.0
 40
1.5
100
AcDbArc
 50
-180.0
 51
-90.0
  0
LINE
  5
F5
330
17
100
AcDbEntity
  8
0
100
AcDbLine
 10
199.62499998482107
 20
11.229999999999993
 30
0.0
 11
194.875
 21
11.229999999999993
 31
0.0
  0
LINE
  5
F6
330
17
100
AcDbEntity
  8
0
100
AcDbLine
 10
193.375
 20
12.729999999999993
 30
0.0
 11
193.375
 21
23.029999999999998
 31
0.0
  0
ARC
  5
F7
330
17
100
AcDbEntity
  8
0
100
AcDbCircle
 10
199.62499998482107
 20
12.729999999999993
 30
0.0
 40
1.5
100
AcDbArc
 50
-90.0
 51
0.0
  0
ARC
  5
F8
330
17
100
AcDbEntity
  8
0
100
AcDbCircle
 10
194.875
 20
23.029999999999998
 30
0.0
 40
1.5
100
AcDbArc
 50
90.0
 51
180.0
  0
LINE
  5
F9
330
17
100
AcDbEntity
  8
0
100
AcDbLine
 10
201.125
 20
23.029999999999998
 30
0.0
 11
201.125
 21
12.729999999999993
 31
0.0
  0
LINE
  5
FA
330
17
100
AcDbEntity
  8
0
100
AcDbLine
 10
194.875
 20
24.529999999999998
 30
0.0
 11
199.62499998482107
 21
24.529999999999998
 31
0.0
  0
ARC
  5
FB
330
17
100
AcDbEntity
  8
0
100
AcDbCircle
 10
199.62499998482107
 20
23.029999999999998
 30
0.0
 40
1.5
100
AcDbArc
 50
0.0
 51
90.0
  0
ARC
  5
FC
330
17
100
AcDbEntity
  8
0
100
AcDbCircle
 10
208.45
 20
12.199999999999939
 30
0.0
 40
1.5
100
AcDbArc
 50
180.0
 51
270.0
  0
LINE
  5
FD
330
17
100
AcDbEntity
  8
0
100
AcDbLine
 10
206.95
 20
12.199999999999939
 30
0.0
 11
206.95
 21
24.799999999012428
 31
0.0
  0
LINE
  5
FE
330
17
100
AcDbEntity
  8
0
100
AcDbLine
 10
221.04999999901236
 20
10.700000000000063
 30
0.0
 11
208.45
 21
10.700000000000063
 31
0.0
  0
ARC
  5
FF
330
17
100
AcDbEntity
  8
0
100
AcDbCircle
 10
208.45
 20
24.799999999012428
 30
0.0
 40
1.5
100
AcDbArc
 50
90.0
 51
180.0
  0
ARC
  5
100
330
17
100
AcDbEntity
  8
0
100
AcDbCircle
 10
221.04999999901236
 20
12.200000000000063
 30
0.0
 40
1.5
100
AcDbArc
 50
270.0
 51
360.0
  0
LINE
  5
101
330
17
100
AcDbEntity
  8
0
100
AcDbLine
 10
208.45
 20
26.300000000000065
 30
0.0
 11
221.05
 21
26.300000000000065
 31
0.0
  0
LINE
  5
102
330
17
100
AcDbEntity
  8
0
100
AcDbLine
 10
222.55
 20
24.799999999012428
 30
0.0
 11
222.55
 21
12.200000000000063
 31
0.0
  0
ARC
  5
103
330
17
100
AcDbEntity
  8
0
100
AcDbCircle
 10
221.05
 20
24.799999999012428
 30
0.0
 40
1.5
100
AcDbArc
 50
0.0
 51
90.0
  0
ARC
  5
104
330
17
100
AcDbEntity
  8
0
100
AcDbCircle
 10
228.7
 20
12.200999999999944
 30
0.0
 40
1.5
100
AcDbArc
 50
180.0
 51
270.0
  0
LINE
  5
105
330
17
100
AcDbEntity
  8
0
100
AcDbLine
 10
227.2
 20
12.200999999999944
 30
0.0
 11
227.2
 21
24.800999999012433
 31
0.0
  0
LINE
  5
106
330
17
100
AcDbEntity
  8
0
100
AcDbLine
 10
241.29999999901236
 20
10.701000000000068
 30
0.0
 11
228.7
 21
10.701000000000068
 31
0.0
  0
ARC
  5
107
330
17
100
AcDbEntity
  8
0
100
AcDbCircle
 10
228.7
 20
24.800999999012433
 30
0.0
 40
1.5
100
AcDbArc
 50
90.0
 51
180.0
  0
ARC
  5
108
330
17
100
AcDbEntity
  8
0
100
AcDbCircle
 10
241.29999999901236
 20
12.201000000000068
 30
0.0
 40
1.5
100
AcDbArc
 50
270.0
 51
360.0
  0
LINE
  5
109
330
17
100
AcDbEntity
  8
0
100
AcDbLine
 10
228.7
 20
26.30100000000007
 30
0.0
 11
241.3
 21
26.30100000000007
 31
0.0
  0
LINE
  5
10A
330
17
100
AcDbEntity
  8
0
100
AcDbLine
 10
242.8
 20
24.800999999012433
 30
0.0
 11
242.8
 21
12.201000000000068
 31
0.0
  0
ARC
  5
10B
330
17
100
AcDbEntity
  8
0
100
AcDbCircle
 10
241.3
 20
24.800999999012433
 30
0.0
 40
1.5
100
AcDbArc
 50
0.0
 51
90.0
  0
ARC
  5
10C
330
17
100
AcDbEntity
  8
0
100
AcDbCircle
 10
255.7
 20
12.200999999999944
 30
0.0
 40
1.5
100
AcDbArc
 50
180.0
 51
270.0
  0
LINE
  5
10D
330
17
100
AcDbEntity
  8
0
100
AcDbLine
 10
254.2
 20
12.200999999999944
 30
0.0
 11
254.2
 21
24.800999999012433
 31
0.0
  0
LINE
  5
10E
330
17
100
AcDbEntity
  8
0
100
AcDbLine
 10
268.29999999901236
 20
10.701000000000068
 30
0.0
 11
255.7
 21
10.701000000000068
 31
0.0
  0
ARC
  5
10F
330
17
100
AcDbEntity
  8
0
100
AcDbCircle
 10
255.7
 20
24.800999999012433
 30
0.0
 40
1.5
100
AcDbArc
 50
90.0
 51
180.0
  0
ARC
  5
110
330
17
100
AcDbEntity
  8
0
100
AcDbCircle
 10
268.29999999901236
 20
12.201000000000068
 30
0.0
 40
1.5
100
AcDbArc
 50
270.0
 51
360.0
  0
LINE
  5
111
330
17
100
AcDbEntity
  8
0
100
AcDbLine
 10
255.7
 20
26.30100000000007
 30
0.0
 11
268.3
 21
26.30100000000007
 31
0.0
  0
LINE
  5
112
330
17
100
AcDbEntity
  8
0
100
AcDbLine
 10
269.8
 20
24.800999999012433
 30
0.0
 11
269.8
 21
12.201000000000068
 31
0.0
  0
ARC
  5
113
330
17
100
AcDbEntity
  8
0
100
AcDbCircle
 10
268.3
 20
24.800999999012433
 30
0.0
 40
1.5
100
AcDbArc
 50
0.0
 51
90.0
  0
CIRCLE
  5
114
330
17
100
AcDbEntity
  8
0
100
AcDbCircle
 10
287.0
 20
5.0
 30
0.0
 40
1.7
  0
ARC
  5
115
330
17
100
AcDbEntity
  8
0
100
AcDbCircle
 10
292.718286
 20
12.199999999999939
 30
0.0
 40
1.5
100
AcDbArc
 50
180.0
 51
270.0
  0
LINE
  5
116
330
17
100
AcDbEntity
  8
0
100
AcDbLine
 10
291.218286
 20
12.199999999999939
 30
0.0
 11
291.218286
 21
24.799999999012428
 31
0.0
  0
LINE
  5
117
330
17
100
AcDbEntity
  8
0
100
AcDbLine
 10
305.31828599901235
 20
10.700000000000063
 30
0.0
 11
292.718286
 21
10.700000000000063
 31
0.0
  0
ARC
  5
118
330
17
100
AcDbEntity
  8
0
100
AcDbCircle
 10
292.718286
 20
24.799999999012428
 30
0.0
 40
1.5
100
AcDbArc
 50
90.0
 51
180.0
  0
ARC
  5
119
330
17
100
AcDbEntity
  8
0
100
AcDbCircle
 10
305.31828599901235
 20
12.200000000000063
 30
0.0
 40
1.5
100
AcDbArc
 50
270.0
 51
360.0
  0
LINE
  5
11A
330
17
100
AcDbEntity
  8
0
100
AcDbLine
 10
292.718286
 20
26.300000000000065
 30
0.0
 11
305.318286
 21
26.300000000000065
 31
0.0
  0
LINE
  5
11B
330
17
100
AcDbEntity
  8
0
100
AcDbLine
 10
306.818286
 20
24.799999999012428
 30
0.0
 11
306.818286
 21
12.200000000000063
 31
0.0
  0
ARC
  5
11C
330
17
100
AcDbEntity
  8
0
100
AcDbCircle
 10
305.318286
 20
24.799999999012428
 30
0.0
 40
1.5
100
AcDbArc
 50
0.0
 51
90.0
  0
CIRCLE
  5
11D
330
17
100
AcDbEntity
  8
0
100
AcDbCircle
 10
340.0
 20
5.0
 30
0.0
 40
1.7
  0
ARC
  5
11E
330
17
100
AcDbEntity
  8
0
100
AcDbCircle
 10
310.718286
 20
12.200999999999944
 30
0.0
 40
1.5
100
AcDbArc
 50
180.0
 51
270.0
  0
LINE
  5
11F
330
17
100
AcDbEntity
  8
0
100
AcDbLine
 10
309.218286
 20
12.200999999999944
 30
0.0
 11
309.218286
 21
24.800999999012433
 31
0.0
  0
LINE
  5
120
330
17
100
AcDbEntity
  8
0
100
AcDbLine
 10
323.31828599901235
 20
10.701000000000068
 30
0.0
 11
310.718286
 21
10.701000000000068
 31
0.0
  0
ARC
  5
121
330
17
100
AcDbEntity
  8
0
100
AcDbCircle
 10
310.718286
 20
24.800999999012433
 30
0.0
 40
1.5
100
AcDbArc
 50
90.0
 51
180.0
  0
ARC
  5
122
330
17
100
AcDbEntity
  8
0
100
AcDbCircle
 10
323.31828599901235
 20
12.201000000000068
 30
0.0
 40
1.5
100
AcDbArc
 50
270.0
 51
360.0
  0
LINE
  5
123
330
17
100
AcDbEntity
  8
0
100
AcDbLine
 10
310.718286
 20
26.30100000000007
 30
0.0
 11
323.318286
 21
26.30100000000007
 31
0.0
  0
LINE
  5
124
330
17
100
AcDbEntity
  8
0
100
AcDbLine
 10
324.818286
 20
24.800999999012433
 30
0.0
 11
324.818286
 21
12.201000000000068
 31
0.0
  0
ARC
  5
125
330
17
100
AcDbEntity
  8
0
100
AcDbCircle
 10
323.318286
 20
24.800999999012433
 30
0.0
 40
1.5
100
AcDbArc
 50
0.0
 51
90.0
  0
CIRCLE
  5
126
330
17
100
AcDbEntity
  8
0
100
AcDbCircle
 10
349.0
 20
15.0
 30
0.0
 40
1.7
  0
ARC
  5
127
330
17
100
AcDbEntity
  8
0
100
AcDbCircle
 10
328.718286
 20
12.200999999999944
 30
0.0
 40
1.5
100
AcDbArc
 50
180.0
 51
270.0
  0
LINE
  5
128
330
17
100
AcDbEntity
  8
0
100
AcDbLine
 10
327.218286
 20
12.200999999999944
 30
0.0
 11
327.218286
 21
24.800999999012433
 31
0.0
  0
LINE
  5
129
330
17
100
AcDbEntity
  8
0
100
AcDbLine
 10
341.31828599901235
 20
10.701000000000068
 30
0.0
 11
328.718286
 21
10.701000000000068
 31
0.0
  0
ARC
  5
12A
330
17
100
AcDbEntity
  8
0
100
AcDbCircle
 10
328.718286
 20
24.800999999012433
 30
0.0
 40
1.5
100
AcDbArc
 50
90.0
 51
180.0
  0
ARC
  5
12B
330
17
100
AcDbEntity
  8
0
100
AcDbCircle
 10
341.31828599901235
 20
12.201000000000068
 30
0.0
 40
1.5
100
AcDbArc
 50
270.0
 51
360.0
  0
LINE
  5
12C
330
17
100
AcDbEntity
  8
0
100
AcDbLine
 10
328.718286
 20
26.30100000000007
 30
0.0
 11
341.318286
 21
26.30100000000007
 31
0.0
  0
LINE
  5
12D
330
17
100
AcDbEntity
  8
0
100
AcDbLine
 10
342.818286
 20
24.800999999012433
 30
0.0
 11
342.818286
 21
12.201000000000068
 31
0.0
  0
ARC
  5
12E
330
17
100
AcDbEntity
  8
0
100
AcDbCircle
 10
341.318286
 20
24.800999999012433
 30
0.0
 40
1.5
100
AcDbArc
 50
0.0
 51
90.0
  0
ARC
  5
12F
330
17
100
AcDbEntity
  8
0
100
AcDbCircle
 10
179.2
 20
29.200999999999944
 30
0.0
 40
1.5
100
AcDbArc
 50
180.0
 51
270.0
  0
LINE
  5
130
330
17
100
AcDbEntity
  8
0
100
AcDbLine
 10
177.7
 20
29.200999999999944
 30
0.0
 11
177.7
 21
41.80099999901243
 31
0.0
  0
LINE
  5
131
330
17
100
AcDbEntity
  8
0
100
AcDbLine
 10
191.79999999901236
 20
27.701000000000068
 30
0.0
 11
179.2
 21
27.701000000000068
 31
0.0
  0
ARC
  5
132
330
17
100
AcDbEntity
  8
0
100
AcDbCircle
 10
179.2
 20
41.80099999901243
 30
0.0
 40
1.5
100
AcDbArc
 50
90.0
 51
180.0
  0
ARC
  5
133
330
17
100
AcDbEntity
  8
0
100
AcDbCircle
 10
191.79999999901236
 20
29.201000000000068
 30
0.0
 40
1.5
100
AcDbArc
 50
270.0
 51
360.0
  0
LINE
  5
134
330
17
100
AcDbEntity
  8
0
100
AcDbLine
 10
179.2
 20
43.301000000000066
 30
0.0
 11
191.8
 21
43.301000000000066
 31
0.0
  0
LINE
  5
135
330
17
100
AcDbEntity
  8
0
100
AcDbLine
 10
193.3
 20
41.80099999901243
 30
0.0
 11
193.3
 21
29.201000000000068
 31
0.0
  0
ARC
  5
136
330
17
100
AcDbEntity
  8
0
100
AcDbCircle
 10
191.8
 20
41.80099999901243
 30
0.0
 40
1.5
100
AcDbArc
 50
0.0
 51
90.0
  0
ARC
  5
137
330
17
100
AcDbEntity
  8
0
100
AcDbCircle
 10
197.2
 20
29.200999999999944
 30
0.0
 40
1.5
100
AcDbArc
 50
180.0
 51
270.0
  0
LINE
  5
138
330
17
100
AcDbEntity
  8
0
100
AcDbLine
 10
195.7
 20
29.200999999999944
 30
0.0
 11
195.7
 21
41.80099999901243
 31
0.0
  0
LINE
  5
139
330
17
100
AcDbEntity
  8
0
100
AcDbLine
 10
209.79999999901236
 20
27.701000000000068
 30
0.0
 11
197.2
 21
27.701000000000068
 31
0.0
  0
ARC
  5
13A
330
17
100
AcDbEntity
  8
0
100
AcDbCircle
 10
197.2
 20
41.80099999901243
 30
0.0
 40
1.5
100
AcDbArc
 50
90.0
 51
180.0
  0
ARC
  5
13B
330
17
100
AcDbEntity
  8
0
100
AcDbCircle
 10
209.79999999901236
 20
29.201000000000068
 30
0.0
 40
1.5
100
AcDbArc
 50
270.0
 51
360.0
  0
LINE
  5
13C
330
17
100
AcDbEntity
  8
0
100
AcDbLine
 10
197.2
 20
43.301000000000066
 30
0.0
 11
209.8
 21
43.301000000000066
 31
0.0
  0
LINE
  5
13D
330
17
100
AcDbEntity
  8
0
100
AcDbLine
 10
211.3
 20
41.80099999901243
 30
0.0
 11
211.3
 21
29.201000000000068
 31
0.0
  0
ARC
  5
13E
330
17
100
AcDbEntity
  8
0
100
AcDbCircle
 10
209.8
 20
41.80099999901243
 30
0.0
 40
1.5
100
AcDbArc
 50
0.0
 51
90.0
  0
ARC
  5
13F
330
17
100
AcDbEntity
  8
0
100
AcDbCircle
 10
215.2
 20
29.19999999999994
 30
0.0
 40
1.5
100
AcDbArc
 50
180.0
 51
270.0
  0
LINE
  5
140
330
17
100
AcDbEntity
  8
0
100
AcDbLine
 10
213.7
 20
29.19999999999994
 30
0.0
 11
213.7
 21
41.79999999901243
 31
0.0
  0
LINE
  5
141
330
17
100
AcDbEntity
  8
0
100
AcDbLine
 10
227.79999999901236
 20
27.700000000000063
 30
0.0
 11
215.2
 21
27.700000000000063
 31
0.0
  0
ARC
  5
142
330
17
100
AcDbEntity
  8
0
100
AcDbCircle
 10
215.2
 20
41.79999999901243
 30
0.0
 40
1.5
100
AcDbArc
 50
90.0
 51
180.0
  0
ARC
  5
143
330
17
100
AcDbEntity
  8
0
100
AcDbCircle
 10
227.79999999901236
 20
29.200000000000063
 30
0.0
 40
1.5
100
AcDbArc
 50
270.0
 51
360.0
  0
LINE
  5
144
330
17
100
AcDbEntity
  8
0
100
AcDbLine
 10
215.2
 20
43.30000000000006
 30
0.0
 11
227.8
 21
43.30000000000006
 31
0.0
  0
LINE
  5
145
330
17
100
AcDbEntity
  8
0
100
AcDbLine
 10
229.3
 20
41.79999999901243
 30
0.0
 11
229.3
 21
29.200000000000063
 31
0.0
  0
ARC
  5
146
330
17
100
AcDbEntity
  8
0
100
AcDbCircle
 10
227.8
 20
41.79999999901243
 30
0.0
 40
1.5
100
AcDbArc
 50
0.0
 51
90.0
  0
ARC
  5
147
330
17
100
AcDbEntity
  8
0
100
AcDbCircle
 10
233.825
 20
30.455
 30
0.0
 40
1.5
100
AcDbArc
 50
-180.0
 51
-90.0
  0
LINE
  5
148
330
17
100
AcDbEntity
  8
0
100
AcDbLine
 10
238.57499998482106
 20
28.955
 30
0.0
 11
233.825
 21
28.955
 31
0.0
  0
LINE
  5
149
330
17
100
AcDbEntity
  8
0
100
AcDbLine
 10
232.325
 20
30.455
 30
0.0
 11
232.325
 21
40.754999999999995
 31
0.0
  0
ARC
  5
14A
330
17
100
AcDbEntity
  8
0
100
AcDbCircle
 10
238.57499998482106
 20
30.455
 30
0.0
 40
1.5
100
AcDbArc
 50
-90.0
 51
0.0
  0
ARC
  5
14B
330
17
100
AcDbEntity
  8
0
100
AcDbCircle
 10
233.825
 20
40.754999999999995
 30
0.0
 40
1.5
100
AcDbArc
 50
90.0
 51
180.0
  0
LINE
  5
14C
330
17
100
AcDbEntity
  8
0
100
AcDbLine
 10
240.075
 20
40.754999999999995
 30
0.0
 11
240.075
 21
30.455
 31
0.0
  0
LINE
  5
14D
330
17
100
AcDbEntity
  8
0
100
AcDbLine
 10
233.825
 20
42.254999999999995
 30
0.0
 11
238.57499998482106
 21
42.254999999999995
 31
0.0
  0
ARC
  5
14E
330
17
100
AcDbEntity
  8
0
100
AcDbCircle
 10
238.57499998482106
 20
40.754999999999995
 30
0.0
 40
1.5
100
AcDbArc
 50
0.0
 51
90.0
  0
ARC
  5
14F
330
17
100
AcDbEntity
  8
0
100
AcDbCircle
 10
248.95
 20
29.200999999999944
 30
0.0
 40
1.5
100
AcDbArc
 50
180.0
 51
270.0
  0
LINE
  5
150
330
17
100
AcDbEntity
  8
0
100
AcDbLine
 10
247.45
 20
29.200999999999944
 30
0.0
 11
247.45
 21
41.80099999901243
 31
0.0
  0
LINE
  5
151
330
17
100
AcDbEntity
  8
0
100
AcDbLine
 10
261.54999999901236
 20
27.701000000000068
 30
0.0
 11
248.95
 21
27.701000000000068
 31
0.0
  0
ARC
  5
152
330
17
100
AcDbEntity
  8
0
100
AcDbCircle
 10
248.95
 20
41.80099999901243
 30
0.0
 40
1.5
100
AcDbArc
 50
90.0
 51
180.0
  0
ARC
  5
153
330
17
100
AcDbEntity
  8
0
100
AcDbCircle
 10
261.54999999901236
 20
29.201000000000068
 30
0.0
 40
1.5
100
AcDbArc
 50
270.0
 51
360.0
  0
LINE
  5
154
330
17
100
AcDbEntity
  8
0
100
AcDbLine
 10
248.95
 20
43.301000000000066
 30
0.0
 11
261.55
 21
43.301000000000066
 31
0.0
  0
LINE
  5
155
330
17
100
AcDbEntity
  8
0
100
AcDbLine
 10
263.05
 20
41.80099999901243
 30
0.0
 11
263.05
 21
29.201000000000068
 31
0.0
  0
ARC
  5
156
330
17
100
AcDbEntity
  8
0
100
AcDbCircle
 10
261.55
 20
41.80099999901243
 30
0.0
 40
1.5
100
AcDbArc
 50
0.0
 51
90.0
  0
ARC
  5
157
330
17
100
AcDbEntity
  8
0
100
AcDbCircle
 10
188.2
 20
46.200999999999944
 30
0.0
 40
1.5
100
AcDbArc
 50
180.0
 51
270.0
  0
LINE
  5
158
330
17
100
AcDbEntity
  8
0
100
AcDbLine
 10
186.7
 20
46.200999999999944
 30
0.0
 11
186.7
 21
58.80099999901243
 31
0.0
  0
LINE
  5
159
330
17
100
AcDbEntity
  8
0
100
AcDbLine
 10
200.79999999901236
 20
44.70100000000007
 30
0.0
 11
188.2
 21
44.70100000000007
 31
0.0
  0
ARC
  5
15A
330
17
100
AcDbEntity
  8
0
100
AcDbCircle
 10
188.2
 20
58.80099999901243
 30
0.0
 40
1.5
100
AcDbArc
 50
90.0
 51
180.0
  0
ARC
  5
15B
330
17
100
AcDbEntity
  8
0
100
AcDbCircle
 10
200.79999999901236
 20
46.20100000000007
 30
0.0
 40
1.5
100
AcDbArc
 50
270.0
 51
360.0
  0
LINE
  5
15C
330
17
100
AcDbEntity
  8
0
100
AcDbLine
 10
188.2
 20
60.301000000000066
 30
0.0
 11
200.8
 21
60.301000000000066
 31
0.0
  0
LINE
  5
15D
330
17
100
AcDbEntity
  8
0
100
AcDbLine
 10
202.3
 20
58.80099999901243
 30
0.0
 11
202.3
 21
46.20100000000007
 31
0.0
  0
ARC
  5
15E
330
17
100
AcDbEntity
  8
0
100
AcDbCircle
 10
200.8
 20
58.80099999901243
 30
0.0
 40
1.5
100
AcDbArc
 50
0.0
 51
90.0
  0
ARC
  5
15F
330
17
100
AcDbEntity
  8
0
100
AcDbCircle
 10
206.2
 20
46.19999999999994
 30
0.0
 40
1.5
100
AcDbArc
 50
180.0
 51
270.0
  0
LINE
  5
160
330
17
100
AcDbEntity
  8
0
100
AcDbLine
 10
204.7
 20
46.19999999999994
 30
0.0
 11
204.7
 21
58.79999999901243
 31
0.0
  0
LINE
  5
161
330
17
100
AcDbEntity
  8
0
100
AcDbLine
 10
218.79999999901236
 20
44.70000000000007
 30
0.0
 11
206.2
 21
44.70000000000007
 31
0.0
  0
ARC
  5
162
330
17
100
AcDbEntity
  8
0
100
AcDbCircle
 10
206.2
 20
58.79999999901243
 30
0.0
 40
1.5
100
AcDbArc
 50
90.0
 51
180.0
  0
ARC
  5
163
330
17
100
AcDbEntity
  8
0
100
AcDbCircle
 10
218.79999999901236
 20
46.20000000000007
 30
0.0
 40
1.5
100
AcDbArc
 50
270.0
 51
360.0
  0
LINE
  5
164
330
17
100
AcDbEntity
  8
0
100
AcDbLine
 10
206.2
 20
60.30000000000006
 30
0.0
 11
218.8
 21
60.30000000000006
 31
0.0
  0
LINE
  5
165
330
17
100
AcDbEntity
  8
0
100
AcDbLine
 10
220.3
 20
58.79999999901243
 30
0.0
 11
220.3
 21
46.20000000000007
 31
0.0
  0
ARC
  5
166
330
17
100
AcDbEntity
  8
0
100
AcDbCircle
 10
218.8
 20
58.79999999901243
 30
0.0
 40
1.5
100
AcDbArc
 50
0.0
 51
90.0
  0
ARC
  5
167
330
17
100
AcDbEntity
  8
0
100
AcDbCircle
 10
224.2
 20
46.200999999999944
 30
0.0
 40
1.5
100
AcDbArc
 50
180.0
 51
270.0
  0
LINE
  5
168
330
17
100
AcDbEntity
  8
0
100
AcDbLine
 10
222.7
 20
46.200999999999944
 30
0.0
 11
222.7
 21
58.80099999901243
 31
0.0
  0
LINE
  5
169
330
17
100
AcDbEntity
  8
0
100
AcDbLine
 10
236.79999999901236
 20
44.70100000000007
 30
0.0
 11
224.2
 21
44.70100000000007
 31
0.0
  0
ARC
  5
16A
330
17
100
AcDbEntity
  8
0
100
AcDbCircle
 10
224.2
 20
58.80099999901243
 30
0.0
 40
1.5
100
AcDbArc
 50
90.0
 51
180.0
  0
ARC
  5
16B
330
17
100
AcDbEntity
  8
0
100
AcDbCircle
 10
236.79999999901236
 20
46.20100000000007
 30
0.0
 40
1.5
100
AcDbArc
 50
270.0
 51
360.0
  0
LINE
  5
16C
330
17
100
AcDbEntity
  8
0
100
AcDbLine
 10
224.2
 20
60.301000000000066
 30
0.0
 11
236.8
 21
60.301000000000066
 31
0.0
  0
LINE
  5
16D
330
17
100
AcDbEntity
  8
0
100
AcDbLine
 10
238.3
 20
58.80099999901243
 30
0.0
 11
238.3
 21
46.20100000000007
 31
0.0
  0
ARC
  5
16E
330
17
100
AcDbEntity
  8
0
100
AcDbCircle
 10
236.8
 20
58.80099999901243
 30
0.0
 40
1.5
100
AcDbArc
 50
0.0
 51
90.0
  0
ARC
  5
16F
330
17
100
AcDbEntity
  8
0
100
AcDbCircle
 10
253.45
 20
46.200999999999944
 30
0.0
 40
1.5
100
AcDbArc
 50
180.0
 51
270.0
  0
LINE
  5
170
330
17
100
AcDbEntity
  8
0
100
AcDbLine
 10
251.95
 20
46.200999999999944
 30
0.0
 11
251.95
 21
58.80099999901243
 31
0.0
  0
LINE
  5
171
330
17
100
AcDbEntity
  8
0
100
AcDbLine
 10
266.04999999901236
 20
44.70100000000007
 30
0.0
 11
253.45
 21
44.70100000000007
 31
0.0
  0
ARC
  5
172
330
17
100
AcDbEntity
  8
0
100
AcDbCircle
 10
253.45
 20
58.80099999901243
 30
0.0
 40
1.5
100
AcDbArc
 50
90.0
 51
180.0
  0
ARC
  5
173
330
17
100
AcDbEntity
  8
0
100
AcDbCircle
 10
266.04999999901236
 20
46.20100000000007
 30
0.0
 40
1.5
100
AcDbArc
 50
270.0
 51
360.0
  0
LINE
  5
174
330
17
100
AcDbEntity
  8
0
100
AcDbLine
 10
253.45
 20
60.301000000000066
 30
0.0
 11
266.05
 21
60.301000000000066
 31
0.0
  0
LINE
  5
175
330
17
100
AcDbEntity
  8
0
100
AcDbLine
 10
267.55
 20
58.80099999901243
 30
0.0
 11
267.55
 21
46.20100000000007
 31
0.0
  0
ARC
  5
176
330
17
100
AcDbEntity
  8
0
100
AcDbCircle
 10
266.05
 20
58.80099999901243
 30
0.0
 40
1.5
100
AcDbArc
 50
0.0
 51
90.0
  0
ARC
  5
177
330
17
100
AcDbEntity
  8
0
100
AcDbCircle
 10
271.925
 20
30.455
 30
0.0
 40
1.5
100
AcDbArc
 50
-180.0
 51
-90.0
  0
LINE
  5
178
330
17
100
AcDbEntity
  8
0
100
AcDbLine
 10
276.67499998482106
 20
28.955
 30
0.0
 11
271.925
 21
28.955
 31
0.0
  0
LINE
  5
179
330
17
100
AcDbEntity
  8
0
100
AcDbLine
 10
270.425
 20
30.455
 30
0.0
 11
270.425
 21
40.754999999999995
 31
0.0
  0
ARC
  5
17A
330
17
100
AcDbEntity
  8
0
100
AcDbCircle
 10
276.67499998482106
 20
30.455
 30
0.0
 40
1.5
100
AcDbArc
 50
-90.0
 51
0.0
  0
ARC
  5
17B
330
17
100
AcDbEntity
  8
0
100
AcDbCircle
 10
271.925
 20
40.754999999999995
 30
0.0
 40
1.5
100
AcDbArc
 50
90.0
 51
180.0
  0
LINE
  5
17C
330
17
100
AcDbEntity
  8
0
100
AcDbLine
 10
278.175
 20
40.754999999999995
 30
0.0
 11
278.175
 21
30.455
 31
0.0
  0
LINE
  5
17D
330
17
100
AcDbEntity
  8
0
100
AcDbLine
 10
271.925
 20
42.254999999999995
 30
0.0
 11
276.67499998482106
 21
42.254999999999995
 31
0.0
  0
ARC
  5
17E
330
17
100
AcDbEntity
  8
0
100
AcDbCircle
 10
276.67499998482106
 20
40.754999999999995
 30
0.0
 40
1.5
100
AcDbArc
 50
0.0
 51
90.0
  0
CIRCLE
  5
17F
330
17
100
AcDbEntity
  8
0
100
AcDbCircle
 10
287.0
 20
35.0
 30
0.0
 40
1.7
  0
ARC
  5
180
330
17
100
AcDbEntity
  8
0
100
AcDbCircle
 10
310.718286
 20
29.19999999999994
 30
0.0
 40
1.5
100
AcDbArc
 50
180.0
 51
270.0
  0
LINE
  5
181
330
17
100
AcDbEntity
  8
0
100
AcDbLine
 10
309.218286
 20
29.19999999999994
 30
0.0
 11
309.218286
 21
41.79999999901243
 31
0.0
  0
LINE
  5
182
330
17
100
AcDbEntity
  8
0
100
AcDbLine
 10
323.31828599901235
 20
27.700000000000063
 30
0.0
 11
310.718286
 21
27.700000000000063
 31
0.0
  0
ARC
  5
183
330
17
100
AcDbEntity
  8
0
100
AcDbCircle
 10
310.718286
 20
41.79999999901243
 30
0.0
 40
1.5
100
AcDbArc
 50
90.0
 51
180.0
  0
ARC
  5
184
330
17
100
AcDbEntity
  8
0
100
AcDbCircle
 10
323.31828599901235
 20
29.200000000000063
 30
0.0
 40
1.5
100
AcDbArc
 50
270.0
 51
360.0
  0
LINE
  5
185
330
17
100
AcDbEntity
  8
0
100
AcDbLine
 10
310.718286
 20
43.30000000000006
 30
0.0
 11
323.318286
 21
43.30000000000006
 31
0.0
  0
LINE
  5
186
330
17
100
AcDbEntity
  8
0
100
AcDbLine
 10
324.818286
 20
41.79999999901243
 30
0.0
 11
324.818286
 21
29.200000000000063
 31
0.0
  0
ARC
  5
187
330
17
100
AcDbEntity
  8
0
100
AcDbCircle
 10
323.318286
 20
41.79999999901243
 30
0.0
 40
1.5
100
AcDbArc
 50
0.0
 51
90.0
  0
CIRCLE
  5
188
330
17
100
AcDbEntity
  8
0
100
AcDbCircle
 10
349.0
 20
35.0
 30
0.0
 40
1.7
  0
ARC
  5
189
330
17
100
AcDbEntity
  8
0
100
AcDbCircle
 10
292.718286
 20
51.198999999999934
 30
0.0
 40
1.5
100
AcDbArc
 50
180.0
 51
270.0
  0
LINE
  5
18A
330
17
100
AcDbEntity
  8
0
100
AcDbLine
 10
291.218286
 20
51.198999999999934
 30
0.0
 11
291.218286
 21
63.79899999901242
 31
0.0
  0
LINE
  5
18B
330
17
100
AcDbEntity
  8
0
100
AcDbLine
 10
305.31828599901235
 20
49.69900000000006
 30
0.0
 11
292.718286
 21
49.69900000000006
 31
0.0
  0
ARC
  5
18C
330
17
100
AcDbEntity
  8
0
100
AcDbCircle
 10
292.718286
 20
63.79899999901242
 30
0.0
 40
1.5
100
AcDbArc
 50
90.0
 51
180.0
  0
ARC
  5
18D
330
17
100
AcDbEntity
  8
0
100
AcDbCircle
 10
305.31828599901235
 20
51.19900000000006
 30
0.0
 40
1.5
100
AcDbArc
 50
270.0
 51
360.0
  0
LINE
  5
18E
330
17
100
AcDbEntity
  8
0
100
AcDbLine
 10
292.718286
 20
65.29900000000006
 30
0.0
 11
305.318286
 21
65.29900000000006
 31
0.0
  0
LINE
  5
18F
330
17
100
AcDbEntity
  8
0
100
AcDbLine
 10
306.818286
 20
63.79899999901242
 30
0.0
 11
306.818286
 21
51.19900000000006
 31
0.0
  0
ARC
  5
190
330
17
100
AcDbEntity
  8
0
100
AcDbCircle
 10
305.318286
 20
63.79899999901242
 30
0.0
 40
1.5
100
AcDbArc
 50
0.0
 51
90.0
  0
ARC
  5
191
330
17
100
AcDbEntity
  8
0
100
AcDbCircle
 10
310.718286
 20
51.198999999999934
 30
0.0
 40
1.5
100
AcDbArc
 50
180.0
 51
270.0
  0
LINE
  5
192
330
17
100
AcDbEntity
  8
0
100
AcDbLine
 10
309.218286
 20
51.198999999999934
 30
0.0
 11
309.218286
 21
63.79899999901242
 31
0.0
  0
LINE
  5
193
330
17
100
AcDbEntity
  8
0
100
AcDbLine
 10
323.31828599901235
 20
49.69900000000006
 30
0.0
 11
310.718286
 21
49.69900000000006
 31
0.0
  0
ARC
  5
194
330
17
100
AcDbEntity
  8
0
100
AcDbCircle
 10
310.718286
 20
63.79899999901242
 30
0.0
 40
1.5
100
AcDbArc
 50
90.0
 51
180.0
  0
ARC
  5
195
330
17
100
AcDbEntity
  8
0
100
AcDbCircle
 10
323.31828599901235
 20
51.19900000000006
 30
0.0
 40
1.5
100
AcDbArc
 50
270.0
 51
360.0
  0
LINE
  5
196
330
17
100
AcDbEntity
  8
0
100
AcDbLine
 10
310.718286
 20
65.29900000000006
 30
0.0
 11
323.318286
 21
65.29900000000006
 31
0.0
  0
LINE
  5
197
330
17
100
AcDbEntity
  8
0
100
AcDbLine
 10
324.818286
 20
63.79899999901242
 30
0.0
 11
324.818286
 21
51.19900000000006
 31
0.0
  0
ARC
  5
198
330
17
100
AcDbEntity
  8
0
100
AcDbCircle
 10
323.318286
 20
63.79899999901242
 30
0.0
 40
1.5
100
AcDbArc
 50
0.0
 51
90.0
  0
ARC
  5
199
330
17
100
AcDbEntity
  8
0
100
AcDbCircle
 10
328.718286
 20
51.198999999999934
 30
0.0
 40
1.5
100
AcDbArc
 50
180.0
 51
270.0
  0
LINE
  5
19A
330
17
100
AcDbEntity
  8
0
100
AcDbLine
 10
327.218286
 20
51.198999999999934
 30
0.0
 11
327.218286
 21
63.79899999901242
 31
0.0
  0
LINE
  5
19B
330
17
100
AcDbEntity
  8
0
100
AcDbLine
 10
341.31828599901235
 20
49.69900000000006
 30
0.0
 11
328.718286
 21
49.69900000000006
 31
0.0
  0
ARC
  5
19C
330
17
100
AcDbEntity
  8
0
100
AcDbCircle
 10
328.718286
 20
63.79899999901242
 30
0.0
 40
1.5
100
AcDbArc
 50
90.0
 51
180.0
  0
ARC
  5
19D
330
17
100
AcDbEntity
  8
0
100
AcDbCircle
 10
341.31828599901235
 20
51.19900000000006
 30
0.0
 40
1.5
100
AcDbArc
 50
270.0
 51
360.0
  0
LINE
  5
19E
330
17
100
AcDbEntity
  8
0
100
AcDbLine
 10
328.718286
 20
65.29900000000006
 30
0.0
 11
341.318286
 21
65.29900000000006
 31
0.0
  0
LINE
  5
19F
330
17
100
AcDbEntity
  8
0
100
AcDbLine
 10
342.818286
 20
63.79899999901242
 30
0.0
 11
342.818286
 21
51.19900000000006
 31
0.0
  0
ARC
  5
1A0
330
17
100
AcDbEntity
  8
0
100
AcDbCircle
 10
341.318286
 20
63.79899999901242
 30
0.0
 40
1.5
100
AcDbArc
 50
0.0
 51
90.0
  0
CIRCLE
  5
1A1
330
17
100
AcDbEntity
  8
0
100
AcDbCircle
 10
5.0
 20
68.5
 30
0.0
 40
1.7
  0
ARC
  5
1A2
330
17
100
AcDbEntity
  8
0
100
AcDbCircle
 10
17.2
 20
63.19999999999993
 30
0.0
 40
1.5
100
AcDbArc
 50
180.0
 51
270.0
  0
LINE
  5
1A3
330
17
100
AcDbEntity
  8
0
100
AcDbLine
 10
15.7
 20
63.19999999999993
 30
0.0
 11
15.7
 21
75.79999999901241
 31
0.0
  0
LINE
  5
1A4
330
17
100
AcDbEntity
  8
0
100
AcDbLine
 10
29.799999999012364
 20
61.70000000000006
 30
0.0
 11
17.2
 21
61.70000000000006
 31
0.0
  0
ARC
  5
1A5
330
17
100
AcDbEntity
  8
0
100
AcDbCircle
 10
17.2
 20
75.79999999901241
 30
0.0
 40
1.5
100
AcDbArc
 50
90.0
 51
180.0
  0
ARC
  5
1A6
330
17
100
AcDbEntity
  8
0
100
AcDbCircle
 10
29.799999999012364
 20
63.20000000000006
 30
0.0
 40
1.5
100
AcDbArc
 50
270.0
 51
360.0
  0
LINE
  5
1A7
330
17
100
AcDbEntity
  8
0
100
AcDbLine
 10
17.2
 20
77.30000000000005
 30
0.0
 11
29.8
 21
77.30000000000005
 31
0.0
  0
LINE
  5
1A8
330
17
100
AcDbEntity
  8
0
100
AcDbLine
 10
31.3
 20
75.79999999901241
 30
0.0
 11
31.3
 21
63.20000000000006
 31
0.0
  0
ARC
  5
1A9
330
17
100
AcDbEntity
  8
0
100
AcDbCircle
 10
29.8
 20
75.79999999901241
 30
0.0
 40
1.5
100
AcDbArc
 50
0.0
 51
90.0
  0
ARC
  5
1AA
330
17
100
AcDbEntity
  8
0
100
AcDbCircle
 10
39.7
 20
63.19999999999993
 30
0.0
 40
1.5
100
AcDbArc
 50
180.0
 51
270.0
  0
LINE
  5
1AB
330
17
100
AcDbEntity
  8
0
100
AcDbLine
 10
38.2
 20
63.19999999999993
 30
0.0
 11
38.2
 21
75.79999999901241
 31
0.0
  0
LINE
  5
1AC
330
17
100
AcDbEntity
  8
0
100
AcDbLine
 10
52.299999999012364
 20
61.70000000000006
 30
0.0
 11
39.7
 21
61.70000000000006
 31
0.0
  0
ARC
  5
1AD
330
17
100
AcDbEntity
  8
0
100
AcDbCircle
 10
39.7
 20
75.79999999901241
 30
0.0
 40
1.5
100
AcDbArc
 50
90.0
 51
180.0
  0
ARC
  5
1AE
330
17
100
AcDbEntity
  8
0
100
AcDbCircle
 10
52.299999999012364
 20
63.20000000000006
 30
0.0
 40
1.5
100
AcDbArc
 50
270.0
 51
360.0
  0
LINE
  5
1AF
330
17
100
AcDbEntity
  8
0
100
AcDbLine
 10
39.7
 20
77.30000000000005
 30
0.0
 11
52.3
 21
77.30000000000005
 31
0.0
  0
LINE
  5
1B0
330
17
100
AcDbEntity
  8
0
100
AcDbLine
 10
53.8
 20
75.79999999901241
 30
0.0
 11
53.8
 21
63.20000000000006
 31
0.0
  0
ARC
  5
1B1
330
17
100
AcDbEntity
  8
0
100
AcDbCircle
 10
52.3
 20
75.79999999901241
 30
0.0
 40
1.5
100
AcDbArc
 50
0.0
 51
90.0
  0
ARC
  5
1B2
330
17
100
AcDbEntity
  8
0
100
AcDbCircle
 10
57.7
 20
63.20099999999994
 30
0.0
 40
1.5
100
AcDbArc
 50
180.0
 51
270.0
  0
LINE
  5
1B3
330
17
100
AcDbEntity
  8
0
100
AcDbLine
 10
56.2
 20
63.20099999999994
 30
0.0
 11
56.2
 21
75.80099999901242
 31
0.0
  0
LINE
  5
1B4
330
17
100
AcDbEntity
  8
0
100
AcDbLine
 10
70.29999999901236
 20
61.701000000000064
 30
0.0
 11
57.7
 21
61.701000000000064
 31
0.0
  0
ARC
  5
1B5
330
17
100
AcDbEntity
  8
0
100
AcDbCircle
 10
57.7
 20
75.80099999901242
 30
0.0
 40
1.5
100
AcDbArc
 50
90.0
 51
180.0
  0
ARC
  5
1B6
330
17
100
AcDbEntity
  8
0
100
AcDbCircle
 10
70.29999999901236
 20
63.201000000000064
 30
0.0
 40
1.5
100
AcDbArc
 50
270.0
 51
360.0
  0
LINE
  5
1B7
330
17
100
AcDbEntity
  8
0
100
AcDbLine
 10
57.7
 20
77.30100000000006
 30
0.0
 11
70.3
 21
77.30100000000006
 31
0.0
  0
LINE
  5
1B8
330
17
100
AcDbEntity
  8
0
100
AcDbLine
 10
71.8
 20
75.80099999901242
 30
0.0
 11
71.8
 21
63.201000000000064
 31
0.0
  0
ARC
  5
1B9
330
17
100
AcDbEntity
  8
0
100
AcDbCircle
 10
70.3
 20
75.80099999901242
 30
0.0
 40
1.5
100
AcDbArc
 50
0.0
 51
90.0
  0
ARC
  5
1BA
330
17
100
AcDbEntity
  8
0
100
AcDbCircle
 10
75.7
 20
63.19999999999993
 30
0.0
 40
1.5
100
AcDbArc
 50
180.0
 51
270.0
  0
LINE
  5
1BB
330
17
100
AcDbEntity
  8
0
100
AcDbLine
 10
74.2
 20
63.19999999999993
 30
0.0
 11
74.2
 21
75.79999999901241
 31
0.0
  0
LINE
  5
1BC
330
17
100
AcDbEntity
  8
0
100
AcDbLine
 10
88.29999999901236
 20
61.70000000000006
 30
0.0
 11
75.7
 21
61.70000000000006
 31
0.0
  0
ARC
  5
1BD
330
17
100
AcDbEntity
  8
0
100
AcDbCircle
 10
75.7
 20
75.79999999901241
 30
0.0
 40
1.5
100
AcDbArc
 50
90.0
 51
180.0
  0
ARC
  5
1BE
330
17
100
AcDbEntity
  8
0
100
AcDbCircle
 10
88.29999999901236
 20
63.20000000000006
 30
0.0
 40
1.5
100
AcDbArc
 50
270.0
 51
360.0
  0
LINE
  5
1BF
330
17
100
AcDbEntity
  8
0
100
AcDbLine
 10
75.7
 20
77.30000000000005
 30
0.0
 11
88.3
 21
77.30000000000005
 31
0.0
  0
LINE
  5
1C0
330
17
100
AcDbEntity
  8
0
100
AcDbLine
 10
89.8
 20
75.79999999901241
 30
0.0
 11
89.8
 21
63.20000000000006
 31
0.0
  0
ARC
  5
1C1
330
17
100
AcDbEntity
  8
0
100
AcDbCircle
 10
88.3
 20
75.79999999901241
 30
0.0
 40
1.5
100
AcDbArc
 50
0.0
 51
90.0
  0
ARC
  5
1C2
330
17
100
AcDbEntity
  8
0
100
AcDbCircle
 10
12.7
 20
80.20099999999994
 30
0.0
 40
1.5
100
AcDbArc
 50
180.0
 51
270.0
  0
LINE
  5
1C3
330
17
100
AcDbEntity
  8
0
100
AcDbLine
 10
11.2
 20
80.20099999999994
 30
0.0
 11
11.2
 21
92.80099999901242
 31
0.0
  0
LINE
  5
1C4
330
17
100
AcDbEntity
  8
0
100
AcDbLine
 10
25.299999999012364
 20
78.70100000000006
 30
0.0
 11
12.7
 21
78.70100000000006
 31
0.0
  0
ARC
  5
1C5
330
17
100
AcDbEntity
  8
0
100
AcDbCircle
 10
12.7
 20
92.80099999901242
 30
0.0
 40
1.5
100
AcDbArc
 50
90.0
 51
180.0
  0
ARC
  5
1C6
330
17
100
AcDbEntity
  8
0
100
AcDbCircle
 10
25.299999999012364
 20
80.20100000000006
 30
0.0
 40
1.5
100
AcDbArc
 50
270.0
 51
360.0
  0
LINE
  5
1C7
330
17
100
AcDbEntity
  8
0
100
AcDbLine
 10
12.7
 20
94.30100000000006
 30
0.0
 11
25.3
 21
94.30100000000006
 31
0.0
  0
LINE
  5
1C8
330
17
100
AcDbEntity
  8
0
100
AcDbLine
 10
26.8
 20
92.80099999901242
 30
0.0
 11
26.8
 21
80.20100000000006
 31
0.0
  0
ARC
  5
1C9
330
17
100
AcDbEntity
  8
0
100
AcDbCircle
 10
25.3
 20
92.80099999901242
 30
0.0
 40
1.5
100
AcDbArc
 50
0.0
 51
90.0
  0
ARC
  5
1CA
330
17
100
AcDbEntity
  8
0
100
AcDbCircle
 10
30.7
 20
80.19999999999993
 30
0.0
 40
1.5
100
AcDbArc
 50
180.0
 51
270.0
  0
LINE
  5
1CB
330
17
100
AcDbEntity
  8
0
100
AcDbLine
 10
29.2
 20
80.19999999999993
 30
0.0
 11
29.2
 21
92.79999999901241
 31
0.0
  0
LINE
  5
1CC
330
17
100
AcDbEntity
  8
0
100
AcDbLine
 10
43.299999999012364
 20
78.70000000000006
 30
0.0
 11
30.7
 21
78.70000000000006
 31
0.0
  0
ARC
  5
1CD
330
17
100
AcDbEntity
  8
0
100
AcDbCircle
 10
30.7
 20
92.79999999901241
 30
0.0
 40
1.5
100
AcDbArc
 50
90.0
 51
180.0
  0
ARC
  5
1CE
330
17
100
AcDbEntity
  8
0
100
AcDbCircle
 10
43.299999999012364
 20
80.20000000000006
 30
0.0
 40
1.5
100
AcDbArc
 50
270.0
 51
360.0
  0
LINE
  5
1CF
330
17
100
AcDbEntity
  8
0
100
AcDbLine
 10
30.7
 20
94.30000000000005
 30
0.0
 11
43.3
 21
94.30000000000005
 31
0.0
  0
LINE
  5
1D0
330
17
100
AcDbEntity
  8
0
100
AcDbLine
 10
44.8
 20
92.79999999901241
 30
0.0
 11
44.8
 21
80.20000000000006
 31
0.0
  0
ARC
  5
1D1
330
17
100
AcDbEntity
  8
0
100
AcDbCircle
 10
43.3
 20
92.79999999901241
 30
0.0
 40
1.5
100
AcDbArc
 50
0.0
 51
90.0
  0
ARC
  5
1D2
330
17
100
AcDbEntity
  8
0
100
AcDbCircle
 10
48.7
 20
80.20099999999994
 30
0.0
 40
1.5
100
AcDbArc
 50
180.0
 51
270.0
  0
LINE
  5
1D3
330
17
100
AcDbEntity
  8
0
100
AcDbLine
 10
47.2
 20
80.20099999999994
 30
0.0
 11
47.2
 21
92.80099999901242
 31
0.0
  0
LINE
  5
1D4
330
17
100
AcDbEntity
  8
0
100
AcDbLine
 10
61.299999999012364
 20
78.70100000000006
 30
0.0
 11
48.7
 21
78.70100000000006
 31
0.0
  0
ARC
  5
1D5
330
17
100
AcDbEntity
  8
0
100
AcDbCircle
 10
48.7
 20
92.80099999901242
 30
0.0
 40
1.5
100
AcDbArc
 50
90.0
 51
180.0
  0
ARC
  5
1D6
330
17
100
AcDbEntity
  8
0
100
AcDbCircle
 10
61.299999999012364
 20
80.20100000000006
 30
0.0
 40
1.5
100
AcDbArc
 50
270.0
 51
360.0
  0
LINE
  5
1D7
330
17
100
AcDbEntity
  8
0
100
AcDbLine
 10
48.7
 20
94.30100000000006
 30
0.0
 11
61.3
 21
94.30100000000006
 31
0.0
  0
LINE
  5
1D8
330
17
100
AcDbEntity
  8
0
100
AcDbLine
 10
62.8
 20
92.80099999901242
 30
0.0
 11
62.8
 21
80.20100000000006
 31
0.0
  0
ARC
  5
1D9
330
17
100
AcDbEntity
  8
0
100
AcDbCircle
 10
61.3
 20
92.80099999901242
 30
0.0
 40
1.5
100
AcDbArc
 50
0.0
 51
90.0
  0
ARC
  5
1DA
330
17
100
AcDbEntity
  8
0
100
AcDbCircle
 10
66.7
 20
80.19999999999993
 30
0.0
 40
1.5
100
AcDbArc
 50
180.0
 51
270.0
  0
LINE
  5
1DB
330
17
100
AcDbEntity
  8
0
100
AcDbLine
 10
65.2
 20
80.19999999999993
 30
0.0
 11
65.2
 21
92.79999999901241
 31
0.0
  0
LINE
  5
1DC
330
17
100
AcDbEntity
  8
0
100
AcDbLine
 10
79.29999999901236
 20
78.70000000000006
 30
0.0
 11
66.7
 21
78.70000000000006
 31
0.0
  0
ARC
  5
1DD
330
17
100
AcDbEntity
  8
0
100
AcDbCircle
 10
66.7
 20
92.79999999901241
 30
0.0
 40
1.5
100
AcDbArc
 50
90.0
 51
180.0
  0
ARC
  5
1DE
330
17
100
AcDbEntity
  8
0
100
AcDbCircle
 10
79.29999999901236
 20
80.20000000000006
 30
0.0
 40
1.5
100
AcDbArc
 50
270.0
 51
360.0
  0
LINE
  5
1DF
330
17
100
AcDbEntity
  8
0
100
AcDbLine
 10
66.7
 20
94.30000000000005
 30
0.0
 11
79.3
 21
94.30000000000005
 31
0.0
  0
LINE
  5
1E0
330
17
100
AcDbEntity
  8
0
100
AcDbLine
 10
80.8
 20
92.79999999901241
 30
0.0
 11
80.8
 21
80.20000000000006
 31
0.0
  0
ARC
  5
1E1
330
17
100
AcDbEntity
  8
0
100
AcDbCircle
 10
79.3
 20
92.79999999901241
 30
0.0
 40
1.5
100
AcDbArc
 50
0.0
 51
90.0
  0
ARC
  5
1E2
330
17
100
AcDbEntity
  8
0
100
AcDbCircle
 10
93.7
 20
63.20099999999994
 30
0.0
 40
1.5
100
AcDbArc
 50
180.0
 51
270.0
  0
LINE
  5
1E3
330
17
100
AcDbEntity
  8
0
100
AcDbLine
 10
92.2
 20
63.20099999999994
 30
0.0
 11
92.2
 21
75.80099999901242
 31
0.0
  0
LINE
  5
1E4
330
17
100
AcDbEntity
  8
0
100
AcDbLine
 10
106.29999999901236
 20
61.701000000000064
 30
0.0
 11
93.7
 21
61.701000000000064
 31
0.0
  0
ARC
  5
1E5
330
17
100
AcDbEntity
  8
0
100
AcDbCircle
 10
93.7
 20
75.80099999901242
 30
0.0
 40
1.5
100
AcDbArc
 50
90.0
 51
180.0
  0
ARC
  5
1E6
330
17
100
AcDbEntity
  8
0
100
AcDbCircle
 10
106.29999999901236
 20
63.201000000000064
 30
0.0
 40
1.5
100
AcDbArc
 50
270.0
 51
360.0
  0
LINE
  5
1E7
330
17
100
AcDbEntity
  8
0
100
AcDbLine
 10
93.7
 20
77.30100000000006
 30
0.0
 11
106.3
 21
77.30100000000006
 31
0.0
  0
LINE
  5
1E8
330
17
100
AcDbEntity
  8
0
100
AcDbLine
 10
107.8
 20
75.80099999901242
 30
0.0
 11
107.8
 21
63.201000000000064
 31
0.0
  0
ARC
  5
1E9
330
17
100
AcDbEntity
  8
0
100
AcDbCircle
 10
106.3
 20
75.80099999901242
 30
0.0
 40
1.5
100
AcDbArc
 50
0.0
 51
90.0
  0
ARC
  5
1EA
330
17
100
AcDbEntity
  8
0
100
AcDbCircle
 10
111.7
 20
63.20099999999994
 30
0.0
 40
1.5
100
AcDbArc
 50
180.0
 51
270.0
  0
LINE
  5
1EB
330
17
100
AcDbEntity
  8
0
100
AcDbLine
 10
110.2
 20
63.20099999999994
 30
0.0
 11
110.2
 21
75.80099999901242
 31
0.0
  0
LINE
  5
1EC
330
17
100
AcDbEntity
  8
0
100
AcDbLine
 10
124.29999999901236
 20
61.701000000000064
 30
0.0
 11
111.7
 21
61.701000000000064
 31
0.0
  0
ARC
  5
1ED
330
17
100
AcDbEntity
  8
0
100
AcDbCircle
 10
111.7
 20
75.80099999901242
 30
0.0
 40
1.5
100
AcDbArc
 50
90.0
 51
180.0
  0
ARC
  5
1EE
330
17
100
AcDbEntity
  8
0
100
AcDbCircle
 10
124.29999999901236
 20
63.201000000000064
 30
0.0
 40
1.5
100
AcDbArc
 50
270.0
 51
360.0
  0
LINE
  5
1EF
330
17
100
AcDbEntity
  8
0
100
AcDbLine
 10
111.7
 20
77.30100000000006
 30
0.0
 11
124.3
 21
77.30100000000006
 31
0.0
  0
LINE
  5
1F0
330
17
100
AcDbEntity
  8
0
100
AcDbLine
 10
125.8
 20
75.80099999901242
 30
0.0
 11
125.8
 21
63.201000000000064
 31
0.0
  0
ARC
  5
1F1
330
17
100
AcDbEntity
  8
0
100
AcDbCircle
 10
124.3
 20
75.80099999901242
 30
0.0
 40
1.5
100
AcDbArc
 50
0.0
 51
90.0
  0
ARC
  5
1F2
330
17
100
AcDbEntity
  8
0
100
AcDbCircle
 10
129.7
 20
63.20099999999994
 30
0.0
 40
1.5
100
AcDbArc
 50
180.0
 51
270.0
  0
LINE
  5
1F3
330
17
100
AcDbEntity
  8
0
100
AcDbLine
 10
128.2
 20
63.20099999999994
 30
0.0
 11
128.2
 21
75.80099999901242
 31
0.0
  0
LINE
  5
1F4
330
17
100
AcDbEntity
  8
0
100
AcDbLine
 10
142.29999999901236
 20
61.701000000000064
 30
0.0
 11
129.7
 21
61.701000000000064
 31
0.0
  0
ARC
  5
1F5
330
17
100
AcDbEntity
  8
0
100
AcDbCircle
 10
129.7
 20
75.80099999901242
 30
0.0
 40
1.5
100
AcDbArc
 50
90.0
 51
180.0
  0
ARC
  5
1F6
330
17
100
AcDbEntity
  8
0
100
AcDbCircle
 10
142.29999999901236
 20
63.201000000000064
 30
0.0
 40
1.5
100
AcDbArc
 50
270.0
 51
360.0
  0
LINE
  5
1F7
330
17
100
AcDbEntity
  8
0
100
AcDbLine
 10
129.7
 20
77.30100000000006
 30
0.0
 11
142.3
 21
77.30100000000006
 31
0.0
  0
LINE
  5
1F8
330
17
100
AcDbEntity
  8
0
100
AcDbLine
 10
143.8
 20
75.80099999901242
 30
0.0
 11
143.8
 21
63.201000000000064
 31
0.0
  0
ARC
  5
1F9
330
17
100
AcDbEntity
  8
0
100
AcDbCircle
 10
142.3
 20
75.80099999901242
 30
0.0
 40
1.5
100
AcDbArc
 50
0.0
 51
90.0
  0
ARC
  5
1FA
330
17
100
AcDbEntity
  8
0
100
AcDbCircle
 10
147.7
 20
63.20099999999994
 30
0.0
 40
1.5
100
AcDbArc
 50
180.0
 51
270.0
  0
LINE
  5
1FB
330
17
100
AcDbEntity
  8
0
100
AcDbLine
 10
146.2
 20
63.20099999999994
 30
0.0
 11
146.2
 21
75.80099999901242
 31
0.0
  0
LINE
  5
1FC
330
17
100
AcDbEntity
  8
0
100
AcDbLine
 10
160.29999999901236
 20
61.701000000000064
 30
0.0
 11
147.7
 21
61.701000000000064
 31
0.0
  0
ARC
  5
1FD
330
17
100
AcDbEntity
  8
0
100
AcDbCircle
 10
147.7
 20
75.80099999901242
 30
0.0
 40
1.5
100
AcDbArc
 50
90.0
 51
180.0
  0
ARC
  5
1FE
330
17
100
AcDbEntity
  8
0
100
AcDbCircle
 10
160.29999999901236
 20
63.201000000000064
 30
0.0
 40
1.5
100
AcDbArc
 50
270.0
 51
360.0
  0
LINE
  5
1FF
330
17
100
AcDbEntity
  8
0
100
AcDbLine
 10
147.7
 20
77.30100000000006
 30
0.0
 11
160.3
 21
77.30100000000006
 31
0.0
  0
LINE
  5
200
330
17
100
AcDbEntity
  8
0
100
AcDbLine
 10
161.8
 20
75.80099999901242
 30
0.0
 11
161.8
 21
63.201000000000064
 31
0.0
  0
ARC
  5
201
330
17
100
AcDbEntity
  8
0
100
AcDbCircle
 10
160.3
 20
75.80099999901242
 30
0.0
 40
1.5
100
AcDbArc
 50
0.0
 51
90.0
  0
ARC
  5
202
330
17
100
AcDbEntity
  8
0
100
AcDbCircle
 10
165.7
 20
63.20099999999994
 30
0.0
 40
1.5
100
AcDbArc
 50
180.0
 51
270.0
  0
LINE
  5
203
330
17
100
AcDbEntity
  8
0
100
AcDbLine
 10
164.2
 20
63.20099999999994
 30
0.0
 11
164.2
 21
75.80099999901242
 31
0.0
  0
LINE
  5
204
330
17
100
AcDbEntity
  8
0
100
AcDbLine
 10
178.29999999901236
 20
61.701000000000064
 30
0.0
 11
165.7
 21
61.701000000000064
 31
0.0
  0
ARC
  5
205
330
17
100
AcDbEntity
  8
0
100
AcDbCircle
 10
165.7
 20
75.80099999901242
 30
0.0
 40
1.5
100
AcDbArc
 50
90.0
 51
180.0
  0
ARC
  5
206
330
17
100
AcDbEntity
  8
0
100
AcDbCircle
 10
178.29999999901236
 20
63.201000000000064
 30
0.0
 40
1.5
100
AcDbArc
 50
270.0
 51
360.0
  0
LINE
  5
207
330
17
100
AcDbEntity
  8
0
100
AcDbLine
 10
165.7
 20
77.30100000000006
 30
0.0
 11
178.3
 21
77.30100000000006
 31
0.0
  0
LINE
  5
208
330
17
100
AcDbEntity
  8
0
100
AcDbLine
 10
179.8
 20
75.80099999901242
 30
0.0
 11
179.8
 21
63.201000000000064
 31
0.0
  0
ARC
  5
209
330
17
100
AcDbEntity
  8
0
100
AcDbCircle
 10
178.3
 20
75.80099999901242
 30
0.0
 40
1.5
100
AcDbArc
 50
0.0
 51
90.0
  0
ARC
  5
20A
330
17
100
AcDbEntity
  8
0
100
AcDbCircle
 10
84.7
 20
80.20099999999994
 30
0.0
 40
1.5
100
AcDbArc
 50
180.0
 51
270.0
  0
LINE
  5
20B
330
17
100
AcDbEntity
  8
0
100
AcDbLine
 10
83.2
 20
80.20099999999994
 30
0.0
 11
83.2
 21
92.80099999901242
 31
0.0
  0
LINE
  5
20C
330
17
100
AcDbEntity
  8
0
100
AcDbLine
 10
97.29999999901236
 20
78.70100000000006
 30
0.0
 11
84.7
 21
78.70100000000006
 31
0.0
  0
ARC
  5
20D
330
17
100
AcDbEntity
  8
0
100
AcDbCircle
 10
84.7
 20
92.80099999901242
 30
0.0
 40
1.5
100
AcDbArc
 50
90.0
 51
180.0
  0
ARC
  5
20E
330
17
100
AcDbEntity
  8
0
100
AcDbCircle
 10
97.29999999901236
 20
80.20100000000006
 30
0.0
 40
1.5
100
AcDbArc
 50
270.0
 51
360.0
  0
LINE
  5
20F
330
17
100
AcDbEntity
  8
0
100
AcDbLine
 10
84.7
 20
94.30100000000006
 30
0.0
 11
97.3
 21
94.30100000000006
 31
0.0
  0
LINE
  5
210
330
17
100
AcDbEntity
  8
0
100
AcDbLine
 10
98.8
 20
92.80099999901242
 30
0.0
 11
98.8
 21
80.20100000000006
 31
0.0
  0
ARC
  5
211
330
17
100
AcDbEntity
  8
0
100
AcDbCircle
 10
97.3
 20
92.80099999901242
 30
0.0
 40
1.5
100
AcDbArc
 50
0.0
 51
90.0
  0
ARC
  5
212
330
17
100
AcDbEntity
  8
0
100
AcDbCircle
 10
102.7
 20
80.20099999999994
 30
0.0
 40
1.5
100
AcDbArc
 50
180.0
 51
270.0
  0
LINE
  5
213
330
17
100
AcDbEntity
  8
0
100
AcDbLine
 10
101.2
 20
80.20099999999994
 30
0.0
 11
101.2
 21
92.80099999901242
 31
0.0
  0
LINE
  5
214
330
17
100
AcDbEntity
  8
0
100
AcDbLine
 10
115.29999999901236
 20
78.70100000000006
 30
0.0
 11
102.7
 21
78.70100000000006
 31
0.0
  0
ARC
  5
215
330
17
100
AcDbEntity
  8
0
100
AcDbCircle
 10
102.7
 20
92.80099999901242
 30
0.0
 40
1.5
100
AcDbArc
 50
90.0
 51
180.0
  0
ARC
  5
216
330
17
100
AcDbEntity
  8
0
100
AcDbCircle
 10
115.29999999901236
 20
80.20100000000006
 30
0.0
 40
1.5
100
AcDbArc
 50
270.0
 51
360.0
  0
LINE
  5
217
330
17
100
AcDbEntity
  8
0
100
AcDbLine
 10
102.7
 20
94.30100000000006
 30
0.0
 11
115.3
 21
94.30100000000006
 31
0.0
  0
LINE
  5
218
330
17
100
AcDbEntity
  8
0
100
AcDbLine
 10
116.8
 20
92.80099999901242
 30
0.0
 11
116.8
 21
80.20100000000006
 31
0.0
  0
ARC
  5
219
330
17
100
AcDbEntity
  8
0
100
AcDbCircle
 10
115.3
 20
92.80099999901242
 30
0.0
 40
1.5
100
AcDbArc
 50
0.0
 51
90.0
  0
ARC
  5
21A
330
17
100
AcDbEntity
  8
0
100
AcDbCircle
 10
120.7
 20
80.20099999999994
 30
0.0
 40
1.5
100
AcDbArc
 50
180.0
 51
270.0
  0
LINE
  5
21B
330
17
100
AcDbEntity
  8
0
100
AcDbLine
 10
119.2
 20
80.20099999999994
 30
0.0
 11
119.2
 21
92.80099999901242
 31
0.0
  0
LINE
  5
21C
330
17
100
AcDbEntity
  8
0
100
AcDbLine
 10
133.29999999901236
 20
78.70100000000006
 30
0.0
 11
120.7
 21
78.70100000000006
 31
0.0
  0
ARC
  5
21D
330
17
100
AcDbEntity
  8
0
100
AcDbCircle
 10
120.7
 20
92.80099999901242
 30
0.0
 40
1.5
100
AcDbArc
 50
90.0
 51
180.0
  0
ARC
  5
21E
330
17
100
AcDbEntity
  8
0
100
AcDbCircle
 10
133.29999999901236
 20
80.20100000000006
 30
0.0
 40
1.5
100
AcDbArc
 50
270.0
 51
360.0
  0
LINE
  5
21F
330
17
100
AcDbEntity
  8
0
100
AcDbLine
 10
120.7
 20
94.30100000000006
 30
0.0
 11
133.3
 21
94.30100000000006
 31
0.0
  0
LINE
  5
220
330
17
100
AcDbEntity
  8
0
100
AcDbLine
 10
134.8
 20
92.80099999901242
 30
0.0
 11
134.8
 21
80.20100000000006
 31
0.0
  0
ARC
  5
221
330
17
100
AcDbEntity
  8
0
100
AcDbCircle
 10
133.3
 20
92.80099999901242
 30
0.0
 40
1.5
100
AcDbArc
 50
0.0
 51
90.0
  0
ARC
  5
222
330
17
100
AcDbEntity
  8
0
100
AcDbCircle
 10
138.7
 20
80.20099999999994
 30
0.0
 40
1.5
100
AcDbArc
 50
180.0
 51
270.0
  0
LINE
  5
223
330
17
100
AcDbEntity
  8
0
100
AcDbLine
 10
137.2
 20
80.20099999999994
 30
0.0
 11
137.2
 21
92.80099999901242
 31
0.0
  0
LINE
  5
224
330
17
100
AcDbEntity
  8
0
100
AcDbLine
 10
151.29999999901236
 20
78.70100000000006
 30
0.0
 11
138.7
 21
78.70100000000006
 31
0.0
  0
ARC
  5
225
330
17
100
AcDbEntity
  8
0
100
AcDbCircle
 10
138.7
 20
92.80099999901242
 30
0.0
 40
1.5
100
AcDbArc
 50
90.0
 51
180.0
  0
ARC
  5
226
330
17
100
AcDbEntity
  8
0
100
AcDbCircle
 10
151.29999999901236
 20
80.20100000000006
 30
0.0
 40
1.5
100
AcDbArc
 50
270.0
 51
360.0
  0
LINE
  5
227
330
17
100
AcDbEntity
  8
0
100
AcDbLine
 10
138.7
 20
94.30100000000006
 30
0.0
 11
151.3
 21
94.30100000000006
 31
0.0
  0
LINE
  5
228
330
17
100
AcDbEntity
  8
0
100
AcDbLine
 10
152.8
 20
92.80099999901242
 30
0.0
 11
152.8
 21
80.20100000000006
 31
0.0
  0
ARC
  5
229
330
17
100
AcDbEntity
  8
0
100
AcDbCircle
 10
151.3
 20
92.80099999901242
 30
0.0
 40
1.5
100
AcDbArc
 50
0.0
 51
90.0
  0
ARC
  5
22A
330
17
100
AcDbEntity
  8
0
100
AcDbCircle
 10
156.7
 20
80.20099999999994
 30
0.0
 40
1.5
100
AcDbArc
 50
180.0
 51
270.0
  0
LINE
  5
22B
330
17
100
AcDbEntity
  8
0
100
AcDbLine
 10
155.2
 20
80.20099999999994
 30
0.0
 11
155.2
 21
92.80099999901242
 31
0.0
  0
LINE
  5
22C
330
17
100
AcDbEntity
  8
0
100
AcDbLine
 10
169.29999999901236
 20
78.70100000000006
 30
0.0
 11
156.7
 21
78.70100000000006
 31
0.0
  0
ARC
  5
22D
330
17
100
AcDbEntity
  8
0
100
AcDbCircle
 10
156.7
 20
92.80099999901242
 30
0.0
 40
1.5
100
AcDbArc
 50
90.0
 51
180.0
  0
ARC
  5
22E
330
17
100
AcDbEntity
  8
0
100
AcDbCircle
 10
169.29999999901236
 20
80.20100000000006
 30
0.0
 40
1.5
100
AcDbArc
 50
270.0
 51
360.0
  0
LINE
  5
22F
330
17
100
AcDbEntity
  8
0
100
AcDbLine
 10
156.7
 20
94.30100000000006
 30
0.0
 11
169.3
 21
94.30100000000006
 31
0.0
  0
LINE
  5
230
330
17
100
AcDbEntity
  8
0
100
AcDbLine
 10
170.8
 20
92.80099999901242
 30
0.0
 11
170.8
 21
80.20100000000006
 31
0.0
  0
ARC
  5
231
330
17
100
AcDbEntity
  8
0
100
AcDbCircle
 10
169.3
 20
92.80099999901242
 30
0.0
 40
1.5
100
AcDbArc
 50
0.0
 51
90.0
  0
ARC
  5
232
330
17
100
AcDbEntity
  8
0
100
AcDbCircle
 10
17.2
 20
107.19999999999993
 30
0.0
 40
1.5
100
AcDbArc
 50
180.0
 51
270.0
  0
LINE
  5
233
330
17
100
AcDbEntity
  8
0
100
AcDbLine
 10
15.7
 20
107.19999999999993
 30
0.0
 11
15.7
 21
119.79999999901241
 31
0.0
  0
LINE
  5
234
330
17
100
AcDbEntity
  8
0
100
AcDbLine
 10
29.799999999012364
 20
105.70000000000006
 30
0.0
 11
17.2
 21
105.70000000000006
 31
0.0
  0
ARC
  5
235
330
17
100
AcDbEntity
  8
0
100
AcDbCircle
 10
17.2
 20
119.79999999901241
 30
0.0
 40
1.5
100
AcDbArc
 50
90.0
 51
180.0
  0
ARC
  5
236
330
17
100
AcDbEntity
  8
0
100
AcDbCircle
 10
29.799999999012364
 20
107.20000000000006
 30
0.0
 40
1.5
100
AcDbArc
 50
270.0
 51
360.0
  0
LINE
  5
237
330
17
100
AcDbEntity
  8
0
100
AcDbLine
 10
17.2
 20
121.30000000000005
 30
0.0
 11
29.8
 21
121.30000000000005
 31
0.0
  0
LINE
  5
238
330
17
100
AcDbEntity
  8
0
100
AcDbLine
 10
31.3
 20
119.79999999901241
 30
0.0
 11
31.3
 21
107.20000000000006
 31
0.0
  0
ARC
  5
239
330
17
100
AcDbEntity
  8
0
100
AcDbCircle
 10
29.8
 20
119.79999999901241
 30
0.0
 40
1.5
100
AcDbArc
 50
0.0
 51
90.0
  0
CIRCLE
  5
23A
330
17
100
AcDbEntity
  8
0
100
AcDbCircle
 10
16.5
 20
126.5
 30
0.0
 40
1.7
  0
ARC
  5
23B
330
17
100
AcDbEntity
  8
0
100
AcDbCircle
 10
48.7
 20
107.19999999999993
 30
0.0
 40
1.5
100
AcDbArc
 50
180.0
 51
270.0
  0
LINE
  5
23C
330
17
100
AcDbEntity
  8
0
100
AcDbLine
 10
47.2
 20
107.19999999999993
 30
0.0
 11
47.2
 21
119.79999999901241
 31
0.0
  0
LINE
  5
23D
330
17
100
AcDbEntity
  8
0
100
AcDbLine
 10
61.299999999012364
 20
105.70000000000006
 30
0.0
 11
48.7
 21
105.70000000000006
 31
0.0
  0
ARC
  5
23E
330
17
100
AcDbEntity
  8
0
100
AcDbCircle
 10
48.7
 20
119.79999999901241
 30
0.0
 40
1.5
100
AcDbArc
 50
90.0
 51
180.0
  0
ARC
  5
23F
330
17
100
AcDbEntity
  8
0
100
AcDbCircle
 10
61.299999999012364
 20
107.20000000000006
 30
0.0
 40
1.5
100
AcDbArc
 50
270.0
 51
360.0
  0
LINE
  5
240
330
17
100
AcDbEntity
  8
0
100
AcDbLine
 10
48.7
 20
121.30000000000005
 30
0.0
 11
61.3
 21
121.30000000000005
 31
0.0
  0
LINE
  5
241
330
17
100
AcDbEntity
  8
0
100
AcDbLine
 10
62.8
 20
119.79999999901241
 30
0.0
 11
62.8
 21
107.20000000000006
 31
0.0
  0
ARC
  5
242
330
17
100
AcDbEntity
  8
0
100
AcDbCircle
 10
61.3
 20
119.79999999901241
 30
0.0
 40
1.5
100
AcDbArc
 50
0.0
 51
90.0
  0
ARC
  5
243
330
17
100
AcDbEntity
  8
0
100
AcDbCircle
 10
66.7
 20
107.19999999999993
 30
0.0
 40
1.5
100
AcDbArc
 50
180.0
 51
270.0
  0
LINE
  5
244
330
17
100
AcDbEntity
  8
0
100
AcDbLine
 10
65.2
 20
107.19999999999993
 30
0.0
 11
65.2
 21
119.79999999901241
 31
0.0
  0
LINE
  5
245
330
17
100
AcDbEntity
  8
0
100
AcDbLine
 10
79.29999999901236
 20
105.70000000000006
 30
0.0
 11
66.7
 21
105.70000000000006
 31
0.0
  0
ARC
  5
246
330
17
100
AcDbEntity
  8
0
100
AcDbCircle
 10
66.7
 20
119.79999999901241
 30
0.0
 40
1.5
100
AcDbArc
 50
90.0
 51
180.0
  0
ARC
  5
247
330
17
100
AcDbEntity
  8
0
100
AcDbCircle
 10
79.29999999901236
 20
107.20000000000006
 30
0.0
 40
1.5
100
AcDbArc
 50
270.0
 51
360.0
  0
LINE
  5
248
330
17
100
AcDbEntity
  8
0
100
AcDbLine
 10
66.7
 20
121.30000000000005
 30
0.0
 11
79.3
 21
121.30000000000005
 31
0.0
  0
LINE
  5
249
330
17
100
AcDbEntity
  8
0
100
AcDbLine
 10
80.8
 20
119.79999999901241
 30
0.0
 11
80.8
 21
107.20000000000006
 31
0.0
  0
ARC
  5
24A
330
17
100
AcDbEntity
  8
0
100
AcDbCircle
 10
79.3
 20
119.79999999901241
 30
0.0
 40
1.5
100
AcDbArc
 50
0.0
 51
90.0
  0
CIRCLE
  5
24B
330
17
100
AcDbEntity
  8
0
100
AcDbCircle
 10
76.5
 20
126.5
 30
0.0
 40
1.7
  0
ARC
  5
24C
330
17
100
AcDbEntity
  8
0
100
AcDbCircle
 10
84.7
 20
107.19999999999993
 30
0.0
 40
1.5
100
AcDbArc
 50
180.0
 51
270.0
  0
LINE
  5
24D
330
17
100
AcDbEntity
  8
0
100
AcDbLine
 10
83.2
 20
107.19999999999993
 30
0.0
 11
83.2
 21
119.79999999901241
 31
0.0
  0
LINE
  5
24E
330
17
100
AcDbEntity
  8
0
100
AcDbLine
 10
97.29999999901236
 20
105.70000000000006
 30
0.0
 11
84.7
 21
105.70000000000006
 31
0.0
  0
ARC
  5
24F
330
17
100
AcDbEntity
  8
0
100
AcDbCircle
 10
84.7
 20
119.79999999901241
 30
0.0
 40
1.5
100
AcDbArc
 50
90.0
 51
180.0
  0
ARC
  5
250
330
17
100
AcDbEntity
  8
0
100
AcDbCircle
 10
97.29999999901236
 20
107.20000000000006
 30
0.0
 40
1.5
100
AcDbArc
 50
270.0
 51
360.0
  0
LINE
  5
251
330
17
100
AcDbEntity
  8
0
100
AcDbLine
 10
84.7
 20
121.30000000000005
 30
0.0
 11
97.3
 21
121.30000000000005
 31
0.0
  0
LINE
  5
252
330
17
100
AcDbEntity
  8
0
100
AcDbLine
 10
98.8
 20
119.79999999901241
 30
0.0
 11
98.8
 21
107.20000000000006
 31
0.0
  0
ARC
  5
253
330
17
100
AcDbEntity
  8
0
100
AcDbCircle
 10
97.3
 20
119.79999999901241
 30
0.0
 40
1.5
100
AcDbArc
 50
0.0
 51
90.0
  0
ARC
  5
254
330
17
100
AcDbEntity
  8
0
100
AcDbCircle
 10
102.7
 20
107.19999999999993
 30
0.0
 40
1.5
100
AcDbArc
 50
180.0
 51
270.0
  0
LINE
  5
255
330
17
100
AcDbEntity
  8
0
100
AcDbLine
 10
101.2
 20
107.19999999999993
 30
0.0
 11
101.2
 21
119.79999999901241
 31
0.0
  0
LINE
  5
256
330
17
100
AcDbEntity
  8
0
100
AcDbLine
 10
115.29999999901236
 20
105.70000000000006
 30
0.0
 11
102.7
 21
105.70000000000006
 31
0.0
  0
ARC
  5
257
330
17
100
AcDbEntity
  8
0
100
AcDbCircle
 10
102.7
 20
119.79999999901241
 30
0.0
 40
1.5
100
AcDbArc
 50
90.0
 51
180.0
  0
ARC
  5
258
330
17
100
AcDbEntity
  8
0
100
AcDbCircle
 10
115.29999999901236
 20
107.20000000000006
 30
0.0
 40
1.5
100
AcDbArc
 50
270.0
 51
360.0
  0
LINE
  5
259
330
17
100
AcDbEntity
  8
0
100
AcDbLine
 10
102.7
 20
121.30000000000005
 30
0.0
 11
115.3
 21
121.30000000000005
 31
0.0
  0
LINE
  5
25A
330
17
100
AcDbEntity
  8
0
100
AcDbLine
 10
116.8
 20
119.79999999901241
 30
0.0
 11
116.8
 21
107.20000000000006
 31
0.0
  0
ARC
  5
25B
330
17
100
AcDbEntity
  8
0
100
AcDbCircle
 10
115.3
 20
119.79999999901241
 30
0.0
 40
1.5
100
AcDbArc
 50
0.0
 51
90.0
  0
ARC
  5
25C
330
17
100
AcDbEntity
  8
0
100
AcDbCircle
 10
129.7
 20
107.19999999999993
 30
0.0
 40
1.5
100
AcDbArc
 50
180.0
 51
270.0
  0
LINE
  5
25D
330
17
100
AcDbEntity
  8
0
100
AcDbLine
 10
128.2
 20
107.19999999999993
 30
0.0
 11
128.2
 21
119.79999999901241
 31
0.0
  0
LINE
  5
25E
330
17
100
AcDbEntity
  8
0
100
AcDbLine
 10
142.29999999901236
 20
105.70000000000006
 30
0.0
 11
129.7
 21
105.70000000000006
 31
0.0
  0
ARC
  5
25F
330
17
100
AcDbEntity
  8
0
100
AcDbCircle
 10
129.7
 20
119.79999999901241
 30
0.0
 40
1.5
100
AcDbArc
 50
90.0
 51
180.0
  0
ARC
  5
260
330
17
100
AcDbEntity
  8
0
100
AcDbCircle
 10
142.29999999901236
 20
107.20000000000006
 30
0.0
 40
1.5
100
AcDbArc
 50
270.0
 51
360.0
  0
LINE
  5
261
330
17
100
AcDbEntity
  8
0
100
AcDbLine
 10
129.7
 20
121.30000000000005
 30
0.0
 11
142.3
 21
121.30000000000005
 31
0.0
  0
LINE
  5
262
330
17
100
AcDbEntity
  8
0
100
AcDbLine
 10
143.8
 20
119.79999999901241
 30
0.0
 11
143.8
 21
107.20000000000006
 31
0.0
  0
ARC
  5
263
330
17
100
AcDbEntity
  8
0
100
AcDbCircle
 10
142.3
 20
119.79999999901241
 30
0.0
 40
1.5
100
AcDbArc
 50
0.0
 51
90.0
  0
ARC
  5
264
330
17
100
AcDbEntity
  8
0
100
AcDbCircle
 10
147.7
 20
107.19999999999993
 30
0.0
 40
1.5
100
AcDbArc
 50
180.0
 51
270.0
  0
LINE
  5
265
330
17
100
AcDbEntity
  8
0
100
AcDbLine
 10
146.2
 20
107.19999999999993
 30
0.0
 11
146.2
 21
119.79999999901241
 31
0.0
  0
LINE
  5
266
330
17
100
AcDbEntity
  8
0
100
AcDbLine
 10
160.29999999901236
 20
105.70000000000006
 30
0.0
 11
147.7
 21
105.70000000000006
 31
0.0
  0
ARC
  5
267
330
17
100
AcDbEntity
  8
0
100
AcDbCircle
 10
147.7
 20
119.79999999901241
 30
0.0
 40
1.5
100
AcDbArc
 50
90.0
 51
180.0
  0
ARC
  5
268
330
17
100
AcDbEntity
  8
0
100
AcDbCircle
 10
160.29999999901236
 20
107.20000000000006
 30
0.0
 40
1.5
100
AcDbArc
 50
270.0
 51
360.0
  0
LINE
  5
269
330
17
100
AcDbEntity
  8
0
100
AcDbLine
 10
147.7
 20
121.30000000000005
 30
0.0
 11
160.3
 21
121.30000000000005
 31
0.0
  0
LINE
  5
26A
330
17
100
AcDbEntity
  8
0
100
AcDbLine
 10
161.8
 20
119.79999999901241
 30
0.0
 11
161.8
 21
107.20000000000006
 31
0.0
  0
ARC
  5
26B
330
17
100
AcDbEntity
  8
0
100
AcDbCircle
 10
160.3
 20
119.79999999901241
 30
0.0
 40
1.5
100
AcDbArc
 50
0.0
 51
90.0
  0
ARC
  5
26C
330
17
100
AcDbEntity
  8
0
100
AcDbCircle
 10
165.7
 20
107.19999999999993
 30
0.0
 40
1.5
100
AcDbArc
 50
180.0
 51
270.0
  0
LINE
  5
26D
330
17
100
AcDbEntity
  8
0
100
AcDbLine
 10
164.2
 20
107.19999999999993
 30
0.0
 11
164.2
 21
119.79999999901241
 31
0.0
  0
LINE
  5
26E
330
17
100
AcDbEntity
  8
0
100
AcDbLine
 10
178.29999999901236
 20
105.70000000000006
 30
0.0
 11
165.7
 21
105.70000000000006
 31
0.0
  0
ARC
  5
26F
330
17
100
AcDbEntity
  8
0
100
AcDbCircle
 10
165.7
 20
119.79999999901241
 30
0.0
 40
1.5
100
AcDbArc
 50
90.0
 51
180.0
  0
ARC
  5
270
330
17
100
AcDbEntity
  8
0
100
AcDbCircle
 10
178.29999999901236
 20
107.20000000000006
 30
0.0
 40
1.5
100
AcDbArc
 50
270.0
 51
360.0
  0
LINE
  5
271
330
17
100
AcDbEntity
  8
0
100
AcDbLine
 10
165.7
 20
121.30000000000005
 30
0.0
 11
178.3
 21
121.30000000000005
 31
0.0
  0
LINE
  5
272
330
17
100
AcDbEntity
  8
0
100
AcDbLine
 10
179.8
 20
119.79999999901241
 30
0.0
 11
179.8
 21
107.20000000000006
 31
0.0
  0
ARC
  5
273
330
17
100
AcDbEntity
  8
0
100
AcDbCircle
 10
178.3
 20
119.79999999901241
 30
0.0
 40
1.5
100
AcDbArc
 50
0.0
 51
90.0
  0
CIRCLE
  5
274
330
17
100
AcDbEntity
  8
0
100
AcDbCircle
 10
146.5
 20
126.5
 30
0.0
 40
1.7
  0
ARC
  5
275
330
17
100
AcDbEntity
  8
0
100
AcDbCircle
 10
183.7
 20
63.20099999999994
 30
0.0
 40
1.5
100
AcDbArc
 50
180.0
 51
270.0
  0
LINE
  5
276
330
17
100
AcDbEntity
  8
0
100
AcDbLine
 10
182.2
 20
63.20099999999994
 30
0.0
 11
182.2
 21
75.80099999901242
 31
0.0
  0
LINE
  5
277
330
17
100
AcDbEntity
  8
0
100
AcDbLine
 10
196.29999999901236
 20
61.701000000000064
 30
0.0
 11
183.7
 21
61.701000000000064
 31
0.0
  0
ARC
  5
278
330
17
100
AcDbEntity
  8
0
100
AcDbCircle
 10
183.7
 20
75.80099999901242
 30
0.0
 40
1.5
100
AcDbArc
 50
90.0
 51
180.0
  0
ARC
  5
279
330
17
100
AcDbEntity
  8
0
100
AcDbCircle
 10
196.29999999901236
 20
63.201000000000064
 30
0.0
 40
1.5
100
AcDbArc
 50
270.0
 51
360.0
  0
LINE
  5
27A
330
17
100
AcDbEntity
  8
0
100
AcDbLine
 10
183.7
 20
77.30100000000006
 30
0.0
 11
196.3
 21
77.30100000000006
 31
0.0
  0
LINE
  5
27B
330
17
100
AcDbEntity
  8
0
100
AcDbLine
 10
197.8
 20
75.80099999901242
 30
0.0
 11
197.8
 21
63.201000000000064
 31
0.0
  0
ARC
  5
27C
330
17
100
AcDbEntity
  8
0
100
AcDbCircle
 10
196.3
 20
75.80099999901242
 30
0.0
 40
1.5
100
AcDbArc
 50
0.0
 51
90.0
  0
ARC
  5
27D
330
17
100
AcDbEntity
  8
0
100
AcDbCircle
 10
201.7
 20
63.19999999999993
 30
0.0
 40
1.5
100
AcDbArc
 50
180.0
 51
270.0
  0
LINE
  5
27E
330
17
100
AcDbEntity
  8
0
100
AcDbLine
 10
200.2
 20
63.19999999999993
 30
0.0
 11
200.2
 21
75.79999999901241
 31
0.0
  0
LINE
  5
27F
330
17
100
AcDbEntity
  8
0
100
AcDbLine
 10
214.29999999901236
 20
61.70000000000006
 30
0.0
 11
201.7
 21
61.70000000000006
 31
0.0
  0
ARC
  5
280
330
17
100
AcDbEntity
  8
0
100
AcDbCircle
 10
201.7
 20
75.79999999901241
 30
0.0
 40
1.5
100
AcDbArc
 50
90.0
 51
180.0
  0
ARC
  5
281
330
17
100
AcDbEntity
  8
0
100
AcDbCircle
 10
214.29999999901236
 20
63.20000000000006
 30
0.0
 40
1.5
100
AcDbArc
 50
270.0
 51
360.0
  0
LINE
  5
282
330
17
100
AcDbEntity
  8
0
100
AcDbLine
 10
201.7
 20
77.30000000000005
 30
0.0
 11
214.3
 21
77.30000000000005
 31
0.0
  0
LINE
  5
283
330
17
100
AcDbEntity
  8
0
100
AcDbLine
 10
215.8
 20
75.79999999901241
 30
0.0
 11
215.8
 21
63.20000000000006
 31
0.0
  0
ARC
  5
284
330
17
100
AcDbEntity
  8
0
100
AcDbCircle
 10
214.3
 20
75.79999999901241
 30
0.0
 40
1.5
100
AcDbArc
 50
0.0
 51
90.0
  0
ARC
  5
285
330
17
100
AcDbEntity
  8
0
100
AcDbCircle
 10
219.7
 20
63.20099999999994
 30
0.0
 40
1.5
100
AcDbArc
 50
180.0
 51
270.0
  0
LINE
  5
286
330
17
100
AcDbEntity
  8
0
100
AcDbLine
 10
218.2
 20
63.20099999999994
 30
0.0
 11
218.2
 21
75.80099999901242
 31
0.0
  0
LINE
  5
287
330
17
100
AcDbEntity
  8
0
100
AcDbLine
 10
232.29999999901236
 20
61.701000000000064
 30
0.0
 11
219.7
 21
61.701000000000064
 31
0.0
  0
ARC
  5
288
330
17
100
AcDbEntity
  8
0
100
AcDbCircle
 10
219.7
 20
75.80099999901242
 30
0.0
 40
1.5
100
AcDbArc
 50
90.0
 51
180.0
  0
ARC
  5
289
330
17
100
AcDbEntity
  8
0
100
AcDbCircle
 10
232.29999999901236
 20
63.201000000000064
 30
0.0
 40
1.5
100
AcDbArc
 50
270.0
 51
360.0
  0
LINE
  5
28A
330
17
100
AcDbEntity
  8
0
100
AcDbLine
 10
219.7
 20
77.30100000000006
 30
0.0
 11
232.3
 21
77.30100000000006
 31
0.0
  0
LINE
  5
28B
330
17
100
AcDbEntity
  8
0
100
AcDbLine
 10
233.8
 20
75.80099999901242
 30
0.0
 11
233.8
 21
63.201000000000064
 31
0.0
  0
ARC
  5
28C
330
17
100
AcDbEntity
  8
0
100
AcDbCircle
 10
232.3
 20
75.80099999901242
 30
0.0
 40
1.5
100
AcDbArc
 50
0.0
 51
90.0
  0
ARC
  5
28D
330
17
100
AcDbEntity
  8
0
100
AcDbCircle
 10
237.7
 20
63.20099999999994
 30
0.0
 40
1.5
100
AcDbArc
 50
180.0
 51
270.0
  0
LINE
  5
28E
330
17
100
AcDbEntity
  8
0
100
AcDbLine
 10
236.2
 20
63.20099999999994
 30
0.0
 11
236.2
 21
75.80099999901242
 31
0.0
  0
LINE
  5
28F
330
17
100
AcDbEntity
  8
0
100
AcDbLine
 10
250.29999999901236
 20
61.701000000000064
 30
0.0
 11
237.7
 21
61.701000000000064
 31
0.0
  0
ARC
  5
290
330
17
100
AcDbEntity
  8
0
100
AcDbCircle
 10
237.7
 20
75.80099999901242
 30
0.0
 40
1.5
100
AcDbArc
 50
90.0
 51
180.0
  0
ARC
  5
291
330
17
100
AcDbEntity
  8
0
100
AcDbCircle
 10
250.29999999901236
 20
63.201000000000064
 30
0.0
 40
1.5
100
AcDbArc
 50
270.0
 51
360.0
  0
LINE
  5
292
330
17
100
AcDbEntity
  8
0
100
AcDbLine
 10
237.7
 20
77.30100000000006
 30
0.0
 11
250.3
 21
77.30100000000006
 31
0.0
  0
LINE
  5
293
330
17
100
AcDbEntity
  8
0
100
AcDbLine
 10
251.8
 20
75.80099999901242
 30
0.0
 11
251.8
 21
63.201000000000064
 31
0.0
  0
ARC
  5
294
330
17
100
AcDbEntity
  8
0
100
AcDbCircle
 10
250.3
 20
75.80099999901242
 30
0.0
 40
1.5
100
AcDbArc
 50
0.0
 51
90.0
  0
ARC
  5
295
330
17
100
AcDbEntity
  8
0
100
AcDbCircle
 10
174.7
 20
80.20099999999994
 30
0.0
 40
1.5
100
AcDbArc
 50
180.0
 51
270.0
  0
LINE
  5
296
330
17
100
AcDbEntity
  8
0
100
AcDbLine
 10
173.2
 20
80.20099999999994
 30
0.0
 11
173.2
 21
92.80099999901242
 31
0.0
  0
LINE
  5
297
330
17
100
AcDbEntity
  8
0
100
AcDbLine
 10
187.29999999901236
 20
78.70100000000006
 30
0.0
 11
174.7
 21
78.70100000000006
 31
0.0
  0
ARC
  5
298
330
17
100
AcDbEntity
  8
0
100
AcDbCircle
 10
174.7
 20
92.80099999901242
 30
0.0
 40
1.5
100
AcDbArc
 50
90.0
 51
180.0
  0
ARC
  5
299
330
17
100
AcDbEntity
  8
0
100
AcDbCircle
 10
187.29999999901236
 20
80.20100000000006
 30
0.0
 40
1.5
100
AcDbArc
 50
270.0
 51
360.0
  0
LINE
  5
29A
330
17
100
AcDbEntity
  8
0
100
AcDbLine
 10
174.7
 20
94.30100000000006
 30
0.0
 11
187.3
 21
94.30100000000006
 31
0.0
  0
LINE
  5
29B
330
17
100
AcDbEntity
  8
0
100
AcDbLine
 10
188.8
 20
92.80099999901242
 30
0.0
 11
188.8
 21
80.20100000000006
 31
0.0
  0
ARC
  5
29C
330
17
100
AcDbEntity
  8
0
100
AcDbCircle
 10
187.3
 20
92.80099999901242
 30
0.0
 40
1.5
100
AcDbArc
 50
0.0
 51
90.0
  0
ARC
  5
29D
330
17
100
AcDbEntity
  8
0
100
AcDbCircle
 10
192.7
 20
80.19999999999993
 30
0.0
 40
1.5
100
AcDbArc
 50
180.0
 51
270.0
  0
LINE
  5
29E
330
17
100
AcDbEntity
  8
0
100
AcDbLine
 10
191.2
 20
80.19999999999993
 30
0.0
 11
191.2
 21
92.79999999901241
 31
0.0
  0
LINE
  5
29F
330
17
100
AcDbEntity
  8
0
100
AcDbLine
 10
205.29999999901236
 20
78.70000000000006
 30
0.0
 11
192.7
 21
78.70000000000006
 31
0.0
  0
ARC
  5
2A0
330
17
100
AcDbEntity
  8
0
100
AcDbCircle
 10
192.7
 20
92.79999999901241
 30
0.0
 40
1.5
100
AcDbArc
 50
90.0
 51
180.0
  0
ARC
  5
2A1
330
17
100
AcDbEntity
  8
0
100
AcDbCircle
 10
205.29999999901236
 20
80.20000000000006
 30
0.0
 40
1.5
100
AcDbArc
 50
270.0
 51
360.0
  0
LINE
  5
2A2
330
17
100
AcDbEntity
  8
0
100
AcDbLine
 10
192.7
 20
94.30000000000005
 30
0.0
 11
205.3
 21
94.30000000000005
 31
0.0
  0
LINE
  5
2A3
330
17
100
AcDbEntity
  8
0
100
AcDbLine
 10
206.8
 20
92.79999999901241
 30
0.0
 11
206.8
 21
80.20000000000006
 31
0.0
  0
ARC
  5
2A4
330
17
100
AcDbEntity
  8
0
100
AcDbCircle
 10
205.3
 20
92.79999999901241
 30
0.0
 40
1.5
100
AcDbArc
 50
0.0
 51
90.0
  0
ARC
  5
2A5
330
17
100
AcDbEntity
  8
0
100
AcDbCircle
 10
210.7
 20
80.20099999999994
 30
0.0
 40
1.5
100
AcDbArc
 50
180.0
 51
270.0
  0
LINE
  5
2A6
330
17
100
AcDbEntity
  8
0
100
AcDbLine
 10
209.2
 20
80.20099999999994
 30
0.0
 11
209.2
 21
92.80099999901242
 31
0.0
  0
LINE
  5
2A7
330
17
100
AcDbEntity
  8
0
100
AcDbLine
 10
223.29999999901236
 20
78.70100000000006
 30
0.0
 11
210.7
 21
78.70100000000006
 31
0.0
  0
ARC
  5
2A8
330
17
100
AcDbEntity
  8
0
100
AcDbCircle
 10
210.7
 20
92.80099999901242
 30
0.0
 40
1.5
100
AcDbArc
 50
90.0
 51
180.0
  0
ARC
  5
2A9
330
17
100
AcDbEntity
  8
0
100
AcDbCircle
 10
223.29999999901236
 20
80.20100000000006
 30
0.0
 40
1.5
100
AcDbArc
 50
270.0
 51
360.0
  0
LINE
  5
2AA
330
17
100
AcDbEntity
  8
0
100
AcDbLine
 10
210.7
 20
94.30100000000006
 30
0.0
 11
223.3
 21
94.30100000000006
 31
0.0
  0
LINE
  5
2AB
330
17
100
AcDbEntity
  8
0
100
AcDbLine
 10
224.8
 20
92.80099999901242
 30
0.0
 11
224.8
 21
80.20100000000006
 31
0.0
  0
ARC
  5
2AC
330
17
100
AcDbEntity
  8
0
100
AcDbCircle
 10
223.3
 20
92.80099999901242
 30
0.0
 40
1.5
100
AcDbArc
 50
0.0
 51
90.0
  0
ARC
  5
2AD
330
17
100
AcDbEntity
  8
0
100
AcDbCircle
 10
228.7
 20
80.20099999999994
 30
0.0
 40
1.5
100
AcDbArc
 50
180.0
 51
270.0
  0
LINE
  5
2AE
330
17
100
AcDbEntity
  8
0
100
AcDbLine
 10
227.2
 20
80.20099999999994
 30
0.0
 11
227.2
 21
92.80099999901242
 31
0.0
  0
LINE
  5
2AF
330
17
100
AcDbEntity
  8
0
100
AcDbLine
 10
241.29999999901236
 20
78.70100000000006
 30
0.0
 11
228.7
 21
78.70100000000006
 31
0.0
  0
ARC
  5
2B0
330
17
100
AcDbEntity
  8
0
100
AcDbCircle
 10
228.7
 20
92.80099999901242
 30
0.0
 40
1.5
100
AcDbArc
 50
90.0
 51
180.0
  0
ARC
  5
2B1
330
17
100
AcDbEntity
  8
0
100
AcDbCircle
 10
241.29999999901236
 20
80.20100000000006
 30
0.0
 40
1.5
100
AcDbArc
 50
270.0
 51
360.0
  0
LINE
  5
2B2
330
17
100
AcDbEntity
  8
0
100
AcDbLine
 10
228.7
 20
94.30100000000006
 30
0.0
 11
241.3
 21
94.30100000000006
 31
0.0
  0
LINE
  5
2B3
330
17
100
AcDbEntity
  8
0
100
AcDbLine
 10
242.8
 20
92.80099999901242
 30
0.0
 11
242.8
 21
80.20100000000006
 31
0.0
  0
ARC
  5
2B4
330
17
100
AcDbEntity
  8
0
100
AcDbCircle
 10
241.3
 20
92.80099999901242
 30
0.0
 40
1.5
100
AcDbArc
 50
0.0
 51
90.0
  0
ARC
  5
2B5
330
17
100
AcDbEntity
  8
0
100
AcDbCircle
 10
255.7
 20
80.20099999999994
 30
0.0
 40
1.5
100
AcDbArc
 50
180.0
 51
270.0
  0
LINE
  5
2B6
330
17
100
AcDbEntity
  8
0
100
AcDbLine
 10
254.2
 20
80.20099999999994
 30
0.0
 11
254.2
 21
92.80099999901242
 31
0.0
  0
LINE
  5
2B7
330
17
100
AcDbEntity
  8
0
100
AcDbLine
 10
268.29999999901236
 20
78.70100000000006
 30
0.0
 11
255.7
 21
78.70100000000006
 31
0.0
  0
ARC
  5
2B8
330
17
100
AcDbEntity
  8
0
100
AcDbCircle
 10
255.7
 20
92.80099999901242
 30
0.0
 40
1.5
100
AcDbArc
 50
90.0
 51
180.0
  0
ARC
  5
2B9
330
17
100
AcDbEntity
  8
0
100
AcDbCircle
 10
268.29999999901236
 20
80.20100000000006
 30
0.0
 40
1.5
100
AcDbArc
 50
270.0
 51
360.0
  0
LINE
  5
2BA
330
17
100
AcDbEntity
  8
0
100
AcDbLine
 10
255.7
 20
94.30100000000006
 30
0.0
 11
268.3
 21
94.30100000000006
 31
0.0
  0
LINE
  5
2BB
330
17
100
AcDbEntity
  8
0
100
AcDbLine
 10
269.8
 20
92.80099999901242
 30
0.0
 11
269.8
 21
80.20100000000006
 31
0.0
  0
ARC
  5
2BC
330
17
100
AcDbEntity
  8
0
100
AcDbCircle
 10
268.3
 20
92.80099999901242
 30
0.0
 40
1.5
100
AcDbArc
 50
0.0
 51
90.0
  0
ARC
  5
2BD
330
17
100
AcDbEntity
  8
0
100
AcDbCircle
 10
260.2
 20
63.19999999999993
 30
0.0
 40
1.5
100
AcDbArc
 50
180.0
 51
270.0
  0
LINE
  5
2BE
330
17
100
AcDbEntity
  8
0
100
AcDbLine
 10
258.7
 20
63.19999999999993
 30
0.0
 11
258.7
 21
75.79999999901241
 31
0.0
  0
LINE
  5
2BF
330
17
100
AcDbEntity
  8
0
100
AcDbLine
 10
272.79999999901236
 20
61.70000000000006
 30
0.0
 11
260.2
 21
61.70000000000006
 31
0.0
  0
ARC
  5
2C0
330
17
100
AcDbEntity
  8
0
100
AcDbCircle
 10
260.2
 20
75.79999999901241
 30
0.0
 40
1.5
100
AcDbArc
 50
90.0
 51
180.0
  0
ARC
  5
2C1
330
17
100
AcDbEntity
  8
0
100
AcDbCircle
 10
272.79999999901236
 20
63.20000000000006
 30
0.0
 40
1.5
100
AcDbArc
 50
270.0
 51
360.0
  0
LINE
  5
2C2
330
17
100
AcDbEntity
  8
0
100
AcDbLine
 10
260.2
 20
77.30000000000005
 30
0.0
 11
272.8
 21
77.30000000000005
 31
0.0
  0
LINE
  5
2C3
330
17
100
AcDbEntity
  8
0
100
AcDbLine
 10
274.3
 20
75.79999999901241
 30
0.0
 11
274.3
 21
63.20000000000006
 31
0.0
  0
ARC
  5
2C4
330
17
100
AcDbEntity
  8
0
100
AcDbCircle
 10
272.8
 20
75.79999999901241
 30
0.0
 40
1.5
100
AcDbArc
 50
0.0
 51
90.0
  0
ARC
  5
2C5
330
17
100
AcDbEntity
  8
0
100
AcDbCircle
 10
292.718286
 20
68.19899999999993
 30
0.0
 40
1.5
100
AcDbArc
 50
180.0
 51
270.0
  0
LINE
  5
2C6
330
17
100
AcDbEntity
  8
0
100
AcDbLine
 10
291.218286
 20
68.19899999999993
 30
0.0
 11
291.218286
 21
80.79899999901241
 31
0.0
  0
LINE
  5
2C7
330
17
100
AcDbEntity
  8
0
100
AcDbLine
 10
305.31828599901235
 20
66.69900000000005
 30
0.0
 11
292.718286
 21
66.69900000000005
 31
0.0
  0
ARC
  5
2C8
330
17
100
AcDbEntity
  8
0
100
AcDbCircle
 10
292.718286
 20
80.79899999901241
 30
0.0
 40
1.5
100
AcDbArc
 50
90.0
 51
180.0
  0
ARC
  5
2C9
330
17
100
AcDbEntity
  8
0
100
AcDbCircle
 10
305.31828599901235
 20
68.19900000000005
 30
0.0
 40
1.5
100
AcDbArc
 50
270.0
 51
360.0
  0
LINE
  5
2CA
330
17
100
AcDbEntity
  8
0
100
AcDbLine
 10
292.718286
 20
82.29900000000005
 30
0.0
 11
305.318286
 21
82.29900000000005
 31
0.0
  0
LINE
  5
2CB
330
17
100
AcDbEntity
  8
0
100
AcDbLine
 10
306.818286
 20
80.79899999901241
 30
0.0
 11
306.818286
 21
68.19900000000005
 31
0.0
  0
ARC
  5
2CC
330
17
100
AcDbEntity
  8
0
100
AcDbCircle
 10
305.318286
 20
80.79899999901241
 30
0.0
 40
1.5
100
AcDbArc
 50
0.0
 51
90.0
  0
ARC
  5
2CD
330
17
100
AcDbEntity
  8
0
100
AcDbCircle
 10
310.718286
 20
68.19899999999993
 30
0.0
 40
1.5
100
AcDbArc
 50
180.0
 51
270.0
  0
LINE
  5
2CE
330
17
100
AcDbEntity
  8
0
100
AcDbLine
 10
309.218286
 20
68.19899999999993
 30
0.0
 11
309.218286
 21
80.79899999901241
 31
0.0
  0
LINE
  5
2CF
330
17
100
AcDbEntity
  8
0
100
AcDbLine
 10
323.31828599901235
 20
66.69900000000005
 30
0.0
 11
310.718286
 21
66.69900000000005
 31
0.0
  0
ARC
  5
2D0
330
17
100
AcDbEntity
  8
0
100
AcDbCircle
 10
310.718286
 20
80.79899999901241
 30
0.0
 40
1.5
100
AcDbArc
 50
90.0
 51
180.0
  0
ARC
  5
2D1
330
17
100
AcDbEntity
  8
0
100
AcDbCircle
 10
323.31828599901235
 20
68.19900000000005
 30
0.0
 40
1.5
100
AcDbArc
 50
270.0
 51
360.0
  0
LINE
  5
2D2
330
17
100
AcDbEntity
  8
0
100
AcDbLine
 10
310.718286
 20
82.29900000000005
 30
0.0
 11
323.318286
 21
82.29900000000005
 31
0.0
  0
LINE
  5
2D3
330
17
100
AcDbEntity
  8
0
100
AcDbLine
 10
324.818286
 20
80.79899999901241
 30
0.0
 11
324.818286
 21
68.19900000000005
 31
0.0
  0
ARC
  5
2D4
330
17
100
AcDbEntity
  8
0
100
AcDbCircle
 10
323.318286
 20
80.79899999901241
 30
0.0
 40
1.5
100
AcDbArc
 50
0.0
 51
90.0
  0
ARC
  5
2D5
330
17
100
AcDbEntity
  8
0
100
AcDbCircle
 10
328.718286
 20
68.19899999999993
 30
0.0
 40
1.5
100
AcDbArc
 50
180.0
 51
270.0
  0
LINE
  5
2D6
330
17
100
AcDbEntity
  8
0
100
AcDbLine
 10
327.218286
 20
68.19899999999993
 30
0.0
 11
327.218286
 21
80.79899999901241
 31
0.0
  0
LINE
  5
2D7
330
17
100
AcDbEntity
  8
0
100
AcDbLine
 10
341.31828599901235
 20
66.69900000000005
 30
0.0
 11
328.718286
 21
66.69900000000005
 31
0.0
  0
ARC
  5
2D8
330
17
100
AcDbEntity
  8
0
100
AcDbCircle
 10
328.718286
 20
80.79899999901241
 30
0.0
 40
1.5
100
AcDbArc
 50
90.0
 51
180.0
  0
ARC
  5
2D9
330
17
100
AcDbEntity
  8
0
100
AcDbCircle
 10
341.31828599901235
 20
68.19900000000005
 30
0.0
 40
1.5
100
AcDbArc
 50
270.0
 51
360.0
  0
LINE
  5
2DA
330
17
100
AcDbEntity
  8
0
100
AcDbLine
 10
328.718286
 20
82.29900000000005
 30
0.0
 11
341.318286
 21
82.29900000000005
 31
0.0
  0
LINE
  5
2DB
330
17
100
AcDbEntity
  8
0
100
AcDbLine
 10
342.818286
 20
80.79899999901241
 30
0.0
 11
342.818286
 21
68.19900000000005
 31
0.0
  0
ARC
  5
2DC
330
17
100
AcDbEntity
  8
0
100
AcDbCircle
 10
341.318286
 20
80.79899999901241
 30
0.0
 40
1.5
100
AcDbArc
 50
0.0
 51
90.0
  0
ARC
  5
2DD
330
17
100
AcDbEntity
  8
0
100
AcDbCircle
 10
183.7
 20
107.19999999999993
 30
0.0
 40
1.5
100
AcDbArc
 50
180.0
 51
270.0
  0
LINE
  5
2DE
330
17
100
AcDbEntity
  8
0
100
AcDbLine
 10
182.2
 20
107.19999999999993
 30
0.0
 11
182.2
 21
119.79999999901241
 31
0.0
  0
LINE
  5
2DF
330
17
100
AcDbEntity
  8
0
100
AcDbLine
 10
196.29999999901236
 20
105.70000000000006
 30
0.0
 11
183.7
 21
105.70000000000006
 31
0.0
  0
ARC
  5
2E0
330
17
100
AcDbEntity
  8
0
100
AcDbCircle
 10
183.7
 20
119.79999999901241
 30
0.0
 40
1.5
100
AcDbArc
 50
90.0
 51
180.0
  0
ARC
  5
2E1
330
17
100
AcDbEntity
  8
0
100
AcDbCircle
 10
196.29999999901236
 20
107.20000000000006
 30
0.0
 40
1.5
100
AcDbArc
 50
270.0
 51
360.0
  0
LINE
  5
2E2
330
17
100
AcDbEntity
  8
0
100
AcDbLine
 10
183.7
 20
121.30000000000005
 30
0.0
 11
196.3
 21
121.30000000000005
 31
0.0
  0
LINE
  5
2E3
330
17
100
AcDbEntity
  8
0
100
AcDbLine
 10
197.8
 20
119.79999999901241
 30
0.0
 11
197.8
 21
107.20000000000006
 31
0.0
  0
ARC
  5
2E4
330
17
100
AcDbEntity
  8
0
100
AcDbCircle
 10
196.3
 20
119.79999999901241
 30
0.0
 40
1.5
100
AcDbArc
 50
0.0
 51
90.0
  0
ARC
  5
2E5
330
17
100
AcDbEntity
  8
0
100
AcDbCircle
 10
210.7
 20
107.19999999999993
 30
0.0
 40
1.5
100
AcDbArc
 50
180.0
 51
270.0
  0
LINE
  5
2E6
330
17
100
AcDbEntity
  8
0
100
AcDbLine
 10
209.2
 20
107.19999999999993
 30
0.0
 11
209.2
 21
119.79999999901241
 31
0.0
  0
LINE
  5
2E7
330
17
100
AcDbEntity
  8
0
100
AcDbLine
 10
223.29999999901236
 20
105.70000000000006
 30
0.0
 11
210.7
 21
105.70000000000006
 31
0.0
  0
ARC
  5
2E8
330
17
100
AcDbEntity
  8
0
100
AcDbCircle
 10
210.7
 20
119.79999999901241
 30
0.0
 40
1.5
100
AcDbArc
 50
90.0
 51
180.0
  0
ARC
  5
2E9
330
17
100
AcDbEntity
  8
0
100
AcDbCircle
 10
223.29999999901236
 20
107.20000000000006
 30
0.0
 40
1.5
100
AcDbArc
 50
270.0
 51
360.0
  0
LINE
  5
2EA
330
17
100
AcDbEntity
  8
0
100
AcDbLine
 10
210.7
 20
121.30000000000005
 30
0.0
 11
223.3
 21
121.30000000000005
 31
0.0
  0
LINE
  5
2EB
330
17
100
AcDbEntity
  8
0
100
AcDbLine
 10
224.8
 20
119.79999999901241
 30
0.0
 11
224.8
 21
107.20000000000006
 31
0.0
  0
ARC
  5
2EC
330
17
100
AcDbEntity
  8
0
100
AcDbCircle
 10
223.3
 20
119.79999999901241
 30
0.0
 40
1.5
100
AcDbArc
 50
0.0
 51
90.0
  0
CIRCLE
  5
2ED
330
17
100
AcDbEntity
  8
0
100
AcDbCircle
 10
204.0
 20
126.5
 30
0.0
 40
1.7
  0
ARC
  5
2EE
330
17
100
AcDbEntity
  8
0
100
AcDbCircle
 10
228.7
 20
107.19999999999993
 30
0.0
 40
1.5
100
AcDbArc
 50
180.0
 51
270.0
  0
LINE
  5
2EF
330
17
100
AcDbEntity
  8
0
100
AcDbLine
 10
227.2
 20
107.19999999999993
 30
0.0
 11
227.2
 21
119.79999999901241
 31
0.0
  0
LINE
  5
2F0
330
17
100
AcDbEntity
  8
0
100
AcDbLine
 10
241.29999999901236
 20
105.70000000000006
 30
0.0
 11
228.7
 21
105.70000000000006
 31
0.0
  0
ARC
  5
2F1
330
17
100
AcDbEntity
  8
0
100
AcDbCircle
 10
228.7
 20
119.79999999901241
 30
0.0
 40
1.5
100
AcDbArc
 50
90.0
 51
180.0
  0
ARC
  5
2F2
330
17
100
AcDbEntity
  8
0
100
AcDbCircle
 10
241.29999999901236
 20
107.20000000000006
 30
0.0
 40
1.5
100
AcDbArc
 50
270.0
 51
360.0
  0
LINE
  5
2F3
330
17
100
AcDbEntity
  8
0
100
AcDbLine
 10
228.7
 20
121.30000000000005
 30
0.0
 11
241.3
 21
121.30000000000005
 31
0.0
  0
LINE
  5
2F4
330
17
100
AcDbEntity
  8
0
100
AcDbLine
 10
242.8
 20
119.79999999901241
 30
0.0
 11
242.8
 21
107.20000000000006
 31
0.0
  0
ARC
  5
2F5
330
17
100
AcDbEntity
  8
0
100
AcDbCircle
 10
241.3
 20
119.79999999901241
 30
0.0
 40
1.5
100
AcDbArc
 50
0.0
 51
90.0
  0
ARC
  5
2F6
330
17
100
AcDbEntity
  8
0
100
AcDbCircle
 10
246.7
 20
107.19999999999993
 30
0.0
 40
1.5
100
AcDbArc
 50
180.0
 51
270.0
  0
LINE
  5
2F7
330
17
100
AcDbEntity
  8
0
100
AcDbLine
 10
245.2
 20
107.19999999999993
 30
0.0
 11
245.2
 21
119.79999999901241
 31
0.0
  0
LINE
  5
2F8
330
17
100
AcDbEntity
  8
0
100
AcDbLine
 10
259.29999999901236
 20
105.70000000000006
 30
0.0
 11
246.7
 21
105.70000000000006
 31
0.0
  0
ARC
  5
2F9
330
17
100
AcDbEntity
  8
0
100
AcDbCircle
 10
246.7
 20
119.79999999901241
 30
0.0
 40
1.5
100
AcDbArc
 50
90.0
 51
180.0
  0
ARC
  5
2FA
330
17
100
AcDbEntity
  8
0
100
AcDbCircle
 10
259.29999999901236
 20
107.20000000000006
 30
0.0
 40
1.5
100
AcDbArc
 50
270.0
 51
360.0
  0
LINE
  5
2FB
330
17
100
AcDbEntity
  8
0
100
AcDbLine
 10
246.7
 20
121.30000000000005
 30
0.0
 11
259.3
 21
121.30000000000005
 31
0.0
  0
LINE
  5
2FC
330
17
100
AcDbEntity
  8
0
100
AcDbLine
 10
260.8
 20
119.79999999901241
 30
0.0
 11
260.8
 21
107.20000000000006
 31
0.0
  0
ARC
  5
2FD
330
17
100
AcDbEntity
  8
0
100
AcDbCircle
 10
259.3
 20
119.79999999901241
 30
0.0
 40
1.5
100
AcDbArc
 50
0.0
 51
90.0
  0
CIRCLE
  5
2FE
330
17
100
AcDbEntity
  8
0
100
AcDbCircle
 10
287.0
 20
100.0
 30
0.0
 40
1.7
  0
CIRCLE
  5
2FF
330
17
100
AcDbEntity
  8
0
100
AcDbCircle
 10
347.0
 20
100.0
 30
0.0
 40
1.7
  0
ARC
  5
300
330
17
100
AcDbEntity
  8
0
100
AcDbCircle
 10
264.7
 20
107.19999999999993
 30
0.0
 40
1.5
100
AcDbArc
 50
180.0
 51
270.0
  0
LINE
  5
301
330
17
100
AcDbEntity
  8
0
100
AcDbLine
 10
263.2
 20
107.19999999999993
 30
0.0
 11
263.2
 21
119.79999999901241
 31
0.0
  0
LINE
  5
302
330
17
100
AcDbEntity
  8
0
100
AcDbLine
 10
277.29999999901236
 20
105.70000000000006
 30
0.0
 11
264.7
 21
105.70000000000006
 31
0.0
  0
ARC
  5
303
330
17
100
AcDbEntity
  8
0
100
AcDbCircle
 10
264.7
 20
119.79999999901241
 30
0.0
 40
1.5
100
AcDbArc
 50
90.0
 51
180.0
  0
ARC
  5
304
330
17
100
AcDbEntity
  8
0
100
AcDbCircle
 10
277.29999999901236
 20
107.20000000000006
 30
0.0
 40
1.5
100
AcDbArc
 50
270.0
 51
360.0
  0
LINE
  5
305
330
17
100
AcDbEntity
  8
0
100
AcDbLine
 10
264.7
 20
121.30000000000005
 30
0.0
 11
277.3
 21
121.30000000000005
 31
0.0
  0
LINE
  5
306
330
17
100
AcDbEntity
  8
0
100
AcDbLine
 10
278.8
 20
119.79999999901241
 30
0.0
 11
278.8
 21
107.20000000000006
 31
0.0
  0
ARC
  5
307
330
17
100
AcDbEntity
  8
0
100
AcDbCircle
 10
277.3
 20
119.79999999901241
 30
0.0
 40
1.5
100
AcDbArc
 50
0.0
 51
90.0
  0
ARC
  5
308
330
17
100
AcDbEntity
  8
0
100
AcDbCircle
 10
333.24999999999994
 20
111.1
 30
0.0
 40
1.5
100
AcDbArc
 50
180.0
 51
270.0
  0
LINE
  5
309
330
17
100
AcDbEntity
  8
0
100
AcDbLine
 10
331.75
 20
111.1
 30
0.0
 11
331.75
 21
120.89999993620418
 31
0.0
  0
LINE
  5
30A
330
17
100
AcDbEntity
  8
0
100
AcDbLine
 10
342.7499999398023
 20
109.6
 30
0.0
 11
333.24999999999994
 21
109.6
 31
0.0
  0
ARC
  5
30B
330
17
100
AcDbEntity
  8
0
100
AcDbCircle
 10
333.25
 20
120.89999993620418
 30
0.0
 40
1.5
100
AcDbArc
 50
90.0
 51
180.0
  0
ARC
  5
30C
330
17
100
AcDbEntity
  8
0
100
AcDbCircle
 10
342.7499999398023
 20
111.1
 30
0.0
 40
1.5
100
AcDbArc
 50
270.0
 51
360.0
  0
LINE
  5
30D
330
17
100
AcDbEntity
  8
0
100
AcDbLine
 10
333.25
 20
122.4
 30
0.0
 11
342.7499999398023
 21
122.4
 31
0.0
  0
LINE
  5
30E
330
17
100
AcDbEntity
  8
0
100
AcDbLine
 10
344.25
 20
120.9
 30
0.0
 11
344.25
 21
111.1
 31
0.0
  0
ARC
  5
30F
330
17
100
AcDbEntity
  8
0
100
AcDbCircle
 10
342.7499999398023
 20
120.9
 30
0.0
 40
1.5
100
AcDbArc
 50
0.0
 51
90.0
  0
CIRCLE
  5
310
330
17
100
AcDbEntity
  8
0
100
AcDbCircle
 10
325.0
 20
124.0
 30
0.0
 40
1.7
  0
ENDSEC
  0
SECTION
  2
OBJECTS
  0
DICTIONARY
  5
A
330
0
100
AcDbDictionary
281
1
  3
ACAD_COLOR
350
B
  3
ACAD_GROUP
350
C
  3
ACAD_LAYOUT
350
D
  3
ACAD_MATERIAL
350
E
  3
ACAD_MLEADERSTYLE
350
F
  3
ACAD_MLINESTYLE
350
10
  3
ACAD_PLOTSETTINGS
350
11
  3
ACAD_PLOTSTYLENAME
350
12
  3
ACAD_SCALELIST
350
14
  3
ACAD_TABLESTYLE
350
15
  3
ACAD_VISUALSTYLE
350
16
  3
EZDXF_META
350
2D
  0
DICTIONARY
  5
B
330
A
100
AcDbDictionary
281
1
  0
DICTIONARY
  5
C
330
A
100
AcDbDictionary
281
1
  0
DICTIONARY
  5
D
330
A
100
AcDbDictionary
281
1
  3
Model
350
1A
  3
Layout1
350
1E
  0
DICTIONARY
  5
E
330
A
100
AcDbDictionary
281
1
  3
ByBlock
350
1F
  3
ByLayer
350
20
  3
Global
350
21
  0
DICTIONARY
  5
F
330
A
100
AcDbDictionary
281
1
  3
Standard
350
2C
  0
DICTIONARY
  5
10
330
A
100
AcDbDictionary
281
1
  3
Standard
350
22
  0
DICTIONARY
  5
11
330
A
100
AcDbDictionary
281
1
  0
ACDBDICTIONARYWDFLT
  5
12
330
A
100
AcDbDictionary
281
1
  3
Normal
350
13
100
AcDbDictionaryWithDefault
340
13
  0
ACDBPLACEHOLDER
  5
13
330
12
  0
DICTIONARY
  5
14
330
A
100
AcDbDictionary
281
1
  0
DICTIONARY
  5
15
330
A
100
AcDbDictionary
281
1
  0
DICTIONARY
  5
16
330
A
100
AcDbDictionary
281
1
  0
LAYOUT
  5
1A
330
D
100
AcDbPlotSettings
  1

  4
A3
  6

 40
7.5
 41
20.0
 42
7.5
 43
20.0
 44
420.0
 45
297.0
 46
0.0
 47
0.0
 48
0.0
 49
0.0
140
0.0
141
0.0
142
1.0
143
1.0
 70
1024
 72
1
 73
0
 74
5
  7

 75
16
 76
0
 77
2
 78
300
147
1.0
148
0.0
149
0.0
100
AcDbLayout
  1
Model
 70
1
 71
0
 10
0.0
 20
0.0
 11
420.0
 21
297.0
 12
0.0
 22
0.0
 32
0.0
 14
1e+20
 24
1e+20
 34
1e+20
 15
-1e+20
 25
-1e+20
 35
-1e+20
146
0.0
 13
0.0
 23
0.0
 33
0.0
 16
1.0
 26
0.0
 36
0.0
 17
0.0
 27
1.0
 37
0.0
 76
1
330
17
  0
LAYOUT
  5
1E
330
D
100
AcDbPlotSettings
  1

  4
A3
  6

 40
7.5
 41
20.0
 42
7.5
 43
20.0
 44
420.0
 45
297.0
 46
0.0
 47
0.0
 48
0.0
 49
0.0
140
0.0
141
0.0
142
1.0
143
1.0
 70
0
 72
1
 73
0
 74
5
  7

 75
16
 76
0
 77
2
 78
300
147
1.0
148
0.0
149
0.0
100
AcDbLayout
  1
Layout1
 70
1
 71
1
 10
0.0
 20
0.0
 11
420.0
 21
297.0
 12
0.0
 22
0.0
 32
0.0
 14
1e+20
 24
1e+20
 34
1e+20
 15
-1e+20
 25
-1e+20
 35
-1e+20
146
0.0
 13
0.0
 23
0.0
 33
0.0
 16
1.0
 26
0.0
 36
0.0
 17
0.0
 27
1.0
 37
0.0
 76
1
330
1B
  0
MATERIAL
  5
1F
102
{ACAD_REACTORS
330
E
102
}
330
E
100
AcDbMaterial
  1
ByBlock
  2

 70
0
 40
1.0
 71
1
 41
1.0
 91
-1023410177
 42
1.0
 72
1
  3

 73
1
 74
1
 75
1
 44
0.5
 73
0
 45
1.0
 46
1.0
 77
1
  4

 78
1
 79
1
170
1
 48
1.0
171
1
  6

172
1
173
1
174
1
140
1.0
141
1.0
175
1
  7

176
1
177
1
178
1
143
1.0
179
1
  8

270
1
271
1
272
1
145
1.0
146
1.0
273
1
  9

274
1
275
1
276
1
 42
1.0
 72
1
  3

 73
1
 74
1
 75
1
 94
63
  0
MATERIAL
  5
20
102
{ACAD_REACTORS
330
E
102
}
330
E
100
AcDbMaterial
  1
ByLayer
  2

 70
0
 40
1.0
 71
1
 41
1.0
 91
-1023410177
 42
1.0
 72
1
  3

 73
1
 74
1
 75
1
 44
0.5
 73
0
 45
1.0
 46
1.0
 77
1
  4

 78
1
 79
1
170
1
 48
1.0
171
1
  6

172
1
173
1
174
1
140
1.0
141
1.0
175
1
  7

176
1
177
1
178
1
143
1.0
179
1
  8

270
1
271
1
272
1
145
1.0
146
1.0
273
1
  9

274
1
275
1
276
1
 42
1.0
 72
1
  3

 73
1
 74
1
 75
1
 94
63
  0
MATERIAL
  5
21
102
{ACAD_REACTORS
330
E
102
}
330
E
100
AcDbMaterial
  1
Global
  2

 70
0
 40
1.0
 71
1
 41
1.0
 91
-1023410177
 42
1.0
 72
1
  3

 73
1
 74
1
 75
1
 44
0.5
 73
0
 45
1.0
 46
1.0
 77
1
  4

 78
1
 79
1
170
1
 48
1.0
171
1
  6

172
1
173
1
174
1
140
1.0
141
1.0
175
1
  7

176
1
177
1
178
1
143
1.0
179
1
  8

270
1
271
1
272
1
145
1.0
146
1.0
273
1
  9

274
1
275
1
276
1
 42
1.0
 72
1
  3

 73
1
 74
1
 75
1
 94
63
  0
MLINESTYLE
  5
22
102
{ACAD_REACTORS
330
10
102
}
330
10
100
AcDbMlineStyle
  2
Standard
 70
0
  3

 62
256
 51
90.0
 52
90.0
 71
2
 49
0.5
 62
256
  6
BYLAYER
 49
-0.5
 62
256
  6
BYLAYER
  0
MLEADERSTYLE
  5
2C
102
{ACAD_REACTORS
330
F
102
}
330
F
100
AcDbMLeaderStyle
179
2
170
2
171
1
172
0
 90
2
 40
0.0
 41
0.0
173
1
 91
-1056964608
 92
-2
290
1
 42
2.0
291
1
 43
8.0
  3
Standard
 44
4.0
300

342
29
174
1
175
1
176
0
178
1
 93
-1056964608
 45
4.0
292
0
297
0
 46
4.0
 94
-1056964608
 47
1.0
 49
1.0
140
1.0
294
1
141
0.0
177
0
142
1.0
295
0
296
0
143
3.75
271
0
272
9
273
9
  0
DICTIONARY
  5
2D
330
A
100
AcDbDictionary
280
1
281
1
  3
CREATED_BY_EZDXF
350
2E
  3
WRITTEN_BY_EZDXF
350
314
  0
DICTIONARYVAR
  5
2E
330
2D
100
DictionaryVariables
280
0
  1
1.4.4 @ 2026-09-02T15:25:08.173879+00:00
  0
DICTIONARYVAR
  5
314
330
2D
100
DictionaryVariables
280
0
  1
1.4.4 @ 2026-09-02T15:25:08.229405+00:00
  0
ENDSEC
  0
EOF
